<mxfile host="65bd71144e">
    <diagram id="8rH_PnH7xsJGvhPv6h2Y" name="Page-1">
        <mxGraphModel dx="2001" dy="665" grid="1" gridSize="10" guides="1" tooltips="1" connect="1" arrows="1" fold="1" page="1" pageScale="1" pageWidth="850" pageHeight="1100" math="1" shadow="0">
            <root>
                <mxCell id="0"/>
                <mxCell id="1" parent="0"/>
                <mxCell id="4" style="edgeStyle=orthogonalEdgeStyle;rounded=0;orthogonalLoop=1;jettySize=auto;html=1;exitX=0.5;exitY=1;exitDx=0;exitDy=0;entryX=0;entryY=0.5;entryDx=0;entryDy=0;" parent="1" source="2" target="3" edge="1">
                    <mxGeometry relative="1" as="geometry"/>
                </mxCell>
                <mxCell id="83" style="edgeStyle=orthogonalEdgeStyle;rounded=0;orthogonalLoop=1;jettySize=auto;html=1;" edge="1" parent="1" source="2">
                    <mxGeometry relative="1" as="geometry">
                        <mxPoint x="107.5" y="230" as="targetPoint"/>
                    </mxGeometry>
                </mxCell>
                <mxCell id="2" value="&lt;font style=&quot;font-size: 20px&quot;&gt;API&lt;/font&gt;" style="rounded=1;whiteSpace=wrap;html=1;rotation=-90;strokeWidth=2;" parent="1" vertex="1">
                    <mxGeometry x="60" y="137" width="95" height="45" as="geometry"/>
                </mxCell>
                <mxCell id="6" style="edgeStyle=orthogonalEdgeStyle;rounded=0;orthogonalLoop=1;jettySize=auto;html=1;exitX=1;exitY=0.5;exitDx=0;exitDy=0;entryX=0;entryY=0.5;entryDx=0;entryDy=0;" parent="1" source="3" target="5" edge="1">
                    <mxGeometry relative="1" as="geometry"/>
                </mxCell>
                <mxCell id="3" value="&lt;font style=&quot;font-size: 20px&quot;&gt;UTF-8&lt;/font&gt;" style="rounded=1;whiteSpace=wrap;html=1;strokeWidth=2;" parent="1" vertex="1">
                    <mxGeometry x="190" y="130" width="120" height="60" as="geometry"/>
                </mxCell>
                <mxCell id="8" style="edgeStyle=orthogonalEdgeStyle;rounded=0;orthogonalLoop=1;jettySize=auto;html=1;exitX=1;exitY=0.5;exitDx=0;exitDy=0;entryX=0.5;entryY=0;entryDx=0;entryDy=0;" parent="1" source="5" target="7" edge="1">
                    <mxGeometry relative="1" as="geometry"/>
                </mxCell>
                <mxCell id="5" value="&lt;strike&gt;0110000&lt;/strike&gt;1&lt;br&gt;&lt;strike&gt;0010000&lt;/strike&gt;0&lt;br&gt;&lt;strike&gt;0110001&lt;/strike&gt;0&lt;br&gt;&lt;strike&gt;0110001&lt;/strike&gt;1&lt;br&gt;..." style="whiteSpace=wrap;html=1;aspect=fixed;strokeWidth=2;" parent="1" vertex="1">
                    <mxGeometry x="360" y="120" width="80" height="80" as="geometry"/>
                </mxCell>
                <mxCell id="12" style="edgeStyle=orthogonalEdgeStyle;rounded=0;orthogonalLoop=1;jettySize=auto;html=1;exitX=0.5;exitY=1;exitDx=0;exitDy=0;entryX=0;entryY=0.5;entryDx=0;entryDy=0;" parent="1" source="7" target="11" edge="1">
                    <mxGeometry relative="1" as="geometry"/>
                </mxCell>
                <mxCell id="7" value="" style="shape=image;verticalLabelPosition=bottom;labelBackgroundColor=#ffffff;verticalAlign=top;aspect=fixed;imageAspect=0;image=data:image/png,iVBORw0KGgoAAAANSUhEUgAAAcEAAAB8CAIAAACe+pygAAAACXBIWXMAAA7EAAAOxAGVKw4bAAAgAElEQVR4nO2deXgUxdbG39mz7ysJRJawQ8IiEAiLgLJGRRBBLgpXEFFUvBeCyiKiqKACERDhqggXyQeCLIpAkIAkgUQIBMFAIGQhZF8n2+zT3x/TdE+SWao7E/Fq/x6ePEVPVVdNT/fpqrdOnRJRFAUBAQEBAV6IH3QDBAQEBP6HEWyogICAAH8EGyogICDAH8GGCggICPBHsKECAgIC/BFsqICAgAB/BBsqICAgwB/BhgoICAjwR7ChAgICAvwRbKiAgIAAfwQbKiAgIMAfwYYKCAgI8EewoX8dLly4MHfuXK1W+6AbIuAYKisrZ82adfv27QfdEAFbtL0Nzc+HUtnmtQgAR48e/eabb/Ly8h50QwQcw6VLl/bu3XvmzJkH3RABW0jb9vRnz2LMGMyahd2727aituDiRVy+jPx85OejpATe3ujaFRMmYPjw5jmLi7FuHTZtehCtZFGr1QBUKtWDbcafDaW24WzRtby60oL6ioKGciNFBTp7DQroOjlskI/CvVnmHTdO9PV5aEhg9wfS1GYIP+j/BG1pQ3U6LFwIoxE5OZzLHjqETz+FRkOaX6FAp07o0gVduuDxx+HmxrlGhps3sXcv4uORnQ0AQUHo1AkdO0KnQ0ICPvoIjzyCjz9G//50/poajBuHsDBb56yrw4wZKCvj0AxvbwQHo08fPPEEwsP5fhlbHMxJOV6QbjAaWnme/v5dXu0dYyPDR1e+u6UsbGWk2s6ewSv6zyDPrzboThakH8hJ/vlehtaol4jE7d38O3kEBTh5lqmUa9LjV13c86++U17sOcFJIjMV+e+txLfSvjkd84GN06aW3nzn0h4AcrFMIZHJJVKZWApAZ9RrDXqNQac16gDsGv3vIGdvU5FzxdfXXv4/QCQXS60XEe0dG+vbwqZzYtEiXLoEqRRyORQKKBSQSkFR0Gqh0UCjgVYLsRhHj8LXl8NpFy7E5cuQSKBQQCaj/4rF0OmgVkOjgVqNiAhs3271DJ9+iv37IZXSrZLLLTQsOBiHDlkuPns2srPZsnI5tFo0NkKlwq5dth6OlBQsXQqKogua/opE0Ouh00GjgU4HrRYUhe3bERHB4ZqY05Y2dNMm3LwJAMXFnMu2a4dhw9DQgKIi/Pwz6uro4/36YdgwKBQQidjMFIXqaly9ij17QFHw88Obb+Lll+HszK3SkhK89RZ27QJFITQUy5dj7lx07twkT0EBVq3CkCHYswfTp0OlQkwMrl3D88/bOrOTEwYPRmUl6uqQkYErV+jjUimmTUNwMCQSNrNajexs3LqF06dhNGLpUowahY0bERnJ7evYo16nVuu1DXp1mUp5s6aAOe4ld+3v11khkZtfYwBGilIbtDWahty6UqW2gTl+r6HCtg1VahtUem2DXp1bW1rUWMkcD3MLCPdqJxc3uQkpChqjrl6nultXXqKqZo6HuPqS29AjeamrLu6511ABYFS7PnO7PTqu/QCZmL3IespwLP/iil//e7zg0v5H33KXOR+7e/FfF/7jLnPu4/OQjTP7OnkMC+rVqFeXqZTniq9Xa+pNx0UQPRwQ3tO7g7NU4S5z8pC5MEUCnD2HBfVq0KnLVDXniq/X3L90IoiiArt38wp1kso9ZC5uUifCb2eNyEg4OUGrRX4+jh2D4f7LUaHAyJHo1QvOzvDzg6srt9NGRMDVFQYDGhpw5w5OnoROR3/k748JE+DriyFDbJ2he3eMGIG6OpSW4vhxtmvk4oIxY9C9O1xc0N16179bN6Sn48YN9oibG0aOxKBBCA21Va+fH0aOREMDSkqQmIhK9tZDeDgGDYK3N+RyuLggKMjmJbAN1UYUFlJubhRAAZSzc6tO9eqr9Hnc3Kj6els5T5yg/P3pzBERVEUFaRU6HbV+PeXuTgGUuzu1ZQtlMNjKv2ULJZVSx45RMTF0dRcvktZVUEAXAaiXXrKVs6KCeu89ytmZAiixmPr8c9snXrx4MYCMjAzSlpjx+PF3fXY+Y/qXVXPPbv6MipwZp9aZ8j+X+ClhLRqDLmjXLFOpPvtf1hh0tvPn1pYsS/3alH/cjytJqsisuhtz/7tMO7k2W1lkI3OZqmbooSUxx989V3Q9ePc/fHY+88ypjwi/C0VRn107yly0jb8dJiny6dXvmSKf/37MdubDhw8D2LRpE3mTGMaOZe+ypCQeJ7DK7NnsmbOyOBefNIktnpZGWio9nS7SuTO1cyelVnOud/16tt7YWM7FbdBmc0pLlqCefkVDpWrVtNLVq3Ri9Gg779Bx4/DDD2yp+fOJzq9UYtIkxMairg4TJyIzE6+8ArHNK/PKK5g4EY8/Tlfn7o5+/YjqAthOKIAYW903+PpixQqkpyMkBEYjXn4Zn31GWgtHcmpLTYluniFdPUPs5o/w7bh79L8jfDsCCHElHRkWNVRqjXpTelz7/s16oC15yD3wo8Fzn3hoCGEtR/PTxv74dkpJpotU8UnUC9899nZnj2Ab+f2dPD8f/nJKSeZTCe9rDDoAw4J6En4XANeq8pj0s11GkRS5XpVvSoggeqZzC2HdcZiEKAA9eiA62pFnzqe/Afr2RdeunItnZNCJnj0xaBBREYrCxo1QKPDhh7h5E3PmQKHgXy+A11/nXNwGbWNDf/kF+/Zh6FD2CI/hvAm1GmlpdPqRR+znHzwYI0fS6UOHaDHBBjk5iIpCQgIAzJuHH36wMzxgWLMGRiOdjo5uMhi3zS+/0AmJxML0VEt69MCPP0ImA4ClS5uYYAeRV8cOsaODexGWkoklpsF1qKsfYZHkkkwmPTy4N2Gpt/pNBxDqZqeWTdeOzD2zUW3QeSvcTkxaM7fboyQnj/DtODlskPG+Vjs0qAdhqwCcv/91eni3D3D2JClyoZQekfb2CWs5o+Uo8vPBeGeMHevIM5s/jqNHcy6enY3CQm7FGxsxcyaysnDlCt58E1K+6iPz2PXsiXbteJ7EIm1gQ/V6LFqE+fMxcSJ7kLcNvXCBlU9GjSIqYt4lPHfOVs6bNzF4MC20vP46duyw0/00JyICkyfTacZqk3D2LJ0YMADuZE9RZCTmzQMArdbB71AATU0bp45YJ48gcOmHpvCqKMw9APYs9bLUne+lxwPwlLt+P255L2+bU3xN+VffKaaEq1Rh6lmTkFNbUtxIy7XRZN/ltrKoTKXkVIQfzC0G4oeGkNRUzo+jOVwbdusWhgxBUBBSUtCDw9utOea227EXBG1iQ7dsQVER1q5FsNkwircNZa66lxf69iUqIpez6cZGq9kqKzF5MioqAGDSJGzciGZzKHZhpubJfxalku1IcvoxX3iBTiQl4dIlDgUJMDdtnDpiIa5+zF8SkovZjhv5HLRcLPVRuNuw1F9kHv/y5kkAIoj2jFnS14fUDpro5dNBIhIDGBzYXSoiHU80fR8Qdd7Pl7DTIsOC/wgbKhJhxIi2OjPJIMpaccB+ww4cwCOPYOVKbNpED8N403YvFTh+Xr60FO+8g/Xr4evbZK6r9TZ05EjSTuKtW2y6SxfLeXQ6PPUU7twBgJAQ7NrF2YAC9JS9qysGDCAtkpTEKgCcfsz+/eHtjepqADh4EAMHcihrD8a0dfMK9XciGpOaoEABCHUj6oeaKwbDyYwOg5EyWqvl1L0rKy/S3sdv9H1yaCDn7opUJAl19cuvL+PUB2/aeSeqNKWULiKCKIp7O8lhHpo+feBH+oLjduaICPj48C/eqxf8/a1m0+sRG4uEBCQmols3zrXYqBcEtpsrju6HxsYiPJyezGl9P9RcfSG0OPX1tLgJwNfXqhq0bBk7zN+4kZu/HIPJhg4bxkGkYX5MiYSb1C8SoUMHOs1IO46giRhq3YiUqy3MCpY2VktFkgAnL5KKeCsGRoqq1TVaHMsXNVbO/+Uzk5rZ3at9bOQ08tOa09EjEMSm0ERKye+mRE/vDoTKJqOf9vYJ85Jz9DAixlwMdWyfS61Gair/MxMOqAsLMWoUSkuRluYYAwqzx65nTwQGOuacDA61oefPY88ebN1Kdxhbb0N5iKGffMKO31esgJMln7sbN7B5M50eNgxPP82nbQC8vIC2F0MZGEOfmWkzHzdITJuRokYeWVbUWNXsuFLb2NkjSEzWhScRQy+VZyfcu9zsYJWmzlPuatFOrb60t05HL+NZNWCmuQcoJzzlrs4SeaRvZ/tZATQVQ4eTzcLx0E/58T8hhlp7aBITMWQInn0W337L2Y/VGm0qhsKRNtRgwCuvYO5cDB5MHwkIYGer+dlQrmLopUtYt45OT5lidfpl8WLoaQ8bvPkmn4aZMDlvkdtQpZL1sODxYzLBRJRK1su51ZCIoSklmRKRuJ1L88Fbb5+whJi1hBUxikFvnzBvheWFZNt+P/Z71d1mB/2cPDKe3tIy88XyWwdzUkzpgf5dxrXv3zIPIfU69aCAruQm+Hwp5z61eRFy5wce/GnFUPPhU8uGURQ++ADz5uHgQbz8Ms8W2q23LWyo4/TQL75AXh47jgYgFsPfHyUlAOi/XOEkhl69ikmToFYDwJw52LHDssR5/DjbyKAgjB/Pp2EmAgPx4ouIiiLNn5zMrh3h8WOaX0OttrUyO9MoAjF0351zQ61YCsLVNSSKQZ1OdaLg0ku9JhDW8nbaLib9Yg8LpcgZ1a5PNy/7XrEMzEUDQKjAptyfUDItT+LUPE4wD03fvjw1KrtnbqUY2qNH8wF1dTVmz0ZVFS5d4nNmwnrRBmIoHNYPrajAypV4//3mQjEznOfRDyUXQ/V6bN2KqCiUlSE8HKdOYedOqyZmxw42/dxz/P3NAISFYft2Du5QvMVQAFot7t7voHl5OWqcQ2LaEguvxmf/wmOuxhxzxcBaL+ybrJ8lInE/P6IB9fWq/MsVd0xpb4Xb5DAyd20rvNxr0pgQDktpU0rs96mtFenj85Dn308MvXMH9+5ZLp6ejv79cewYpFLHG1C0sRgKh/VD33wTHTrgpZeaHw8Opl15amqgUnFbwG5XDK2uRnY2jh/Hrl3Iz8ewYZg6FQsW2FrEoFTi+HH2v3PncmhP62mNGHr9OjuWJ1wFQIC5aevh3Z7xXjTCqNJr79aXH8xJ/u5OMoCooFZ1nRgLIoKopTmmQB3NS3svPX5kuz6E3kUHc1OY9MQOAxUSx/TKScitK2Wk4c4ewczSIxuUq5WFDfS76o/xaoKjbSiPuQlzrDVsxw689hp95qQkZGQ4OCyEDdvtKBxhQ3/9FTt34tw5C2t1zN2bSkrQkYvjnvlVHzKk+cBcr2c1zfbtsXMnpkyxH67p0CH2RujVy1acA4dTW8vTM9TEZbOZFsfZUHMxdMmFr5Zc+MpiNj8nD5IFoDZgBr9uMqe4a0dNaQpUvU5Vpa6/UnEnv74MXHyeDuVeYNKPhfJXQnnAzMgDOJKXeiQv1UbmlrTphBITa/TPJoa2HFA3NmLhQhQUYO1aLFlCfxQXh507W9VOG/X+WW2o0YhFi/CPf2DYMAufNpua52dDp03Dd99ZztPQgOxs7NmDOXPwz3/i6aexcaOt/rp5J9R2qBmH00ox1NyvnsciOyswpq2LR/CGoWx4AT1lrNepMqvv7s5KLGqsbOVA3lwxcJbKTxbQ7wMKlNagK1cp6/Vq0xHCyZYsZWFBfTnz3zadommJubJ5cvJ7rlL7i7dXXfz2dGEG/kAxlJ9k2XZnZiZ2undHUBBu38a0aRg/Hl9/DYMBn3xCq/3x8Vi3DgEBjmkz7E1kOYRW29CvvkJWFhvpoxm83ZvMxVAbE9+uroiIQEQEhg7Fs88iPh4nTmDvXqszReYx3gkDHjgKczHU4vvGBhTV5ApPmeKQFuXXlzGmbVS7vi3nlyd1eHhsSL+xP74dxcVxsiUpZutzNg1d0GwC3UhRZ4quPp+4QSqWEC61LKhjDWi4Z7u287W0iLmDwQA/K4s4mnKjmg4t2Ne3DcXQvDw2IIjDxVCujtrm5OSg4H5sxVGjcPAgFi/GZ5/RN7JEgpdewurVAKDRYPt2rFzpgDabaGsxFK2dU6qqwttvY80aq63jbUPN1RcS56EpU/DPfwJAdTWefZaVQJpRwEbJfGA2dMAAeHhwK5ucjKIiOh0RYXXxFUfMJ5etiXTtXH3A0fm8JeZi6JDA5m7TYpFoTEjk0KCeUYE9TGsu7cJoiwB6enewkdPhmPepCS9LTm2JWZE/SAwlic9DjgPF0ORkvPsuEhOb9AQWLGBXaG/b5jDPvWa2u41oXT90xQrU14OisHWr5Qzm22lxsqHMVffxQW+yAD8vvYTPPweA6mosXYr4+OYZtNom7kGOWgNBQm0tK2jy+DH37WPTzML5VtPEM9TKaL2wodJD7tLDy4KdqterNQYdybL35PsCoo1emJEyjmrXx36jAQCm4MomHnIn6l2cKEhfeuFrgJKJpXKJVC6WycQSiUispwxqg05j0GkM2qc7D39nwLO2z5PMfZm8+XWO5rjIlRPMQyMW85EsSc7cejE0IgI7dsDFpUmGoCBMn449ewCguBj792PWLJ5NtVYv+WNnNOLePXZVoF1aYUMvX8aOHfD2xlrrXtbM2nDwtaEjRpCuZO/eHWIxXaPFcE0GA5jtKDw9OUe5N6e4GNOmISXFfk4TrRFD9XocOECnO3bEggXcitto1H3T1s0r1M/Jctf4SsWd4UG9LK5EWn3x2wBnr9jIqbZrya8vY7qN1pxMAdysKVg1cCZRuwHd/SCkAAKciVaa9vLu8ErvyRqDVqXXlquVh3MvMPHkfRXu0zpH+zl5jA21PyVsbhAJlc1ks274HyaGenu31Zlb4xnapw9tKFvy+uvsR3Fxjreh5GLoN9/g4EEcO0aan68NpSgsWoTZs+3Momk07GpLchtKKIY2QyqFRELb0KIiVFY29zB2doa7O72tSGsMKID4eHhyiM3RKjF02zaU0gGSsXZtk6hUrcDctNmYKR7ffsCjoRbCS1dp6vbfOZfy5Cd2KzJXDKxVpDJog118bG/CYY6/WbBOhYToHm7v5v9ST9YP30ki+yKTnmD8dOj8GGL3Uubr9PIm9wxlu+EechfbmXnzPyGG2pgNHTgQUVG4cAEALl5EaqoDJn35iaGbN+PVVznUwlcP3bULmZnswkprKBTsC5HchnIVQ5nzMzqKTEYvZm9GyH0HnepqC58SYjTi88+5jamZ2UGuYmhlJd55h06PGIEZHDZls00TMdS6DQ1x9e3gZiHAzpc3To5q17e9pY+akULQC3OWyE9NXisCaegs81WnzI5GnMiupe9GmVgyJoR0NzLzWbhoMjdP82Xyf08x1Hxm3HbDXnuNTcfFca6oGbm5fMTQCxeQlYVpXGLX8LKhSiWWLcOaNUQ+CDyWKjG3g6cnh932zJeZDh5sObA88xtqNPy3J4mPh0KBJ54gzV9Xh/R0Os31Hlyxgjb37dph3z4+AfqswDtmKACltmFb5k/zexAtk2UUAweuzzF3ZiptrOFa3EhRv5bRARIH+oe7EDgnmeCxxDPZzJmUMDoJP1ojhubnN9kqw9qZWymGisV2BtRTp7IR5g8cYAOF8IOfGLp1K554gls/h5cNXbUKgYGkgQGYq1JeznrF24b59sOHc1hJ+eWXbHrhQst5Jk1i08z4hBOVlfjXv7BlC4dForzF0MuX8Z//AIBcjgMHWrf3YItGMWKoZwinmKEA4q4dDXbxIbEI5opBKyf3zfF38oz07WRKp5bZ2+6lBdeq8mq1dHAvTnaNx4uH8esSi0RDAv4IMTQy0vIYzBrLlqFTJ/Trh6ioJvMXDEznpJViqF2VViZjjYpeT88Q84aHGJqcjPh4PPcct4q429Br1/D559i8mdSIMP1QimJ1PRvwE0O/+46d4YmOtjrmHTeO3Y766FHSkzMYjZg/H+PHcxss8RND8/IQEwODAXI5/vtfDpFNCGhi2jguPcysvrv1+o8vEnZCCdyn+LHgvrh5vSr/rpm/PQmn7rF7UnGaKGdePD282xPGDGXFUJ+Of4wYyuneTEjA+vW06UxNZU/CcPMmu0yeR5DI3Fw2zANJw158kV2qvWMHHUGIH1zFUJUK//wn/P3xKNFGXCwcbahWizlzMHUqB+vGNZo9D/Xlxg12C8+AAOzaZbX3KpVizRo6vWsXN1cBisK8ecjLw7ZtHEqBl2foxYsYNQpFRfDwwIkTmD6dW432aDrPw8GIVGvqXzgb5yJTPE22J2VTMdSRkdundhoW7kkPcT7OOEhe0EhRe27TKyLlYukA/3Db+RkIZ+HMya0r/ePFUE5DHXOx0s/Pwipi00AIgIsL5sxpVcNIbKi/P2be986oqMC333Ku0YS57Sa8ILGxuH0bM2dyDkPE0YYuXYrLl7nF3ORqQ5kVv4QbDqemYvRoWtwMCEBiIjp1spV/xgw88wwA1NfjtddYbyfbNDZi7lykp+Pkyea+bbapreUmhhoMiItDdDTy8xEejqQkB08QAGgq0pGbtqLGyumnPrylLJwV/gjJAkcAScV0Rb18Ojh2NZFEJN4x8lUniQxAfPYvppWUJHxy9XtmnejDAV2diIOVMN8F/DxD2zLUSGIineAqhjJzq25uFoKdFRSwfjerV/PZDtN8/T7hGOyVV9h0XBzpA2qtXhA8dno9Fi7Eli0AOA/kwcGGajRYsIDe35xT4DXz8Xturp3MBgMOHaLTdjccrqzEkiUYOZL2nB87FleuoBfBzb1zJz00PnAACxfaV2nT0hAZibIynDljaxcYi3z/PSuG2u6819cjLg5dumDxYojFePddXLtGug0fFxr0GmYw29UzhGRT31pt47bMn4Yfjr1ccUcE0bzuj5FUdKn8NjOL3ZvLRpuE9PXpuHX4y1KRhAI158zGxKLf7BbZlvnTht++Z7ZN5hT+wzy2SH+yAH1NizhmdVlL6urYOBAdO3Jzuhs0CHI59u1Dbi67Ta0JnQ7Tp9NGdulSLF3KuWENDfjpJ7ZhhC6r7duz6WvXsHcv53qBJgE2bIihej0OH0bv3vjiCwDo1Yuo29YMe93WnBycOUN/lfL7qtP48Zg9G08+aTVMVUkJkpJQVobk5CbfZv16qFQICoKXF2Ji6BH33bu4eBEqFcrLcfQorl+nM5eXY88eC2FA6+tRVITz55GYSIeD690bb7+NGTNIp62dnZGYiAULsHs3tm/HpUv4+GPL3b1ff8W6dUhIwMqVWLqU6PwGAxISUFODxkZcu4avv2Y/OnsWtbVNTmI0QqlEaSkuXkRSEmpr4e2NBQuwdCm9WZODyKq5d6OmQGPQlTRWH85NZfyBNAZdfPYvLftiFNCoV9dpVYWNVVcrcq5U3FEZ6Mh7j7XvZ2Np0PnSG8UNVRqj7o6y+P+y2ZUOp+5d+fDK/hBXX1epk1gk6uLZjtwb1AZPPhTl5+Q558yGak390wkfzO326Ot9Hm/pcWWgjOdLbnz62/cZFTlfjnx9ctigO7XF54qv2x5fl6uVaaVZKoO2RtNwtui3xMKrzEdrL+97OCDcVerk7+z5SDv2PVeiqk4rzdIa9UptQ1Lx7+ZF3kuPHxTQzVkq91G4k6/IskZaGvLzoVajoAD799O70wIoKMBbbyE8HC4uCAiwH53mySexZg3S05vLRUol5s2jldDly/H++6QNy8zE9evQaFBUhP37UXl/UW5BAVatQvv2cHdH9+4WLAdF4aefkJvb3OP8hReQloZ+/TBwIPpYv2xlZUhJQWMjqqtx6hROnKCPi8X4/vsmU2FGI6qqUF6OzEwkJDRxz+HRCQUgomz3lWfPxr59cHKCszMUCuj1UKuh0UCtxsyZVtccfPghVqyAXM7+k0qh19MFNRrI5cjKotWXf/0LcXGWZwSt4eyMwECEhmLkSIwfj2HDeDr9HD2KVatw9SoAdOqEvn3RrRs6dIBSiexsnD6N0lLMnYtVqzjMid+4gf79OYjhMhlCQxEWho4dMWkSJk+2Ff/UJm+88camTZsyMjIiWjiETT/1Eflo1wZysfSHCe8MtKIhqg26rvHzVAatXCyVS2RysVQulopEIiNl1BkNWqNeZ9BrjXoDZXy+25gNUfMtnoQH5Wrlxt8O77x5SmvUi0Wigf7hgwK6Bbl4O0vkFeraq5U5ScW/64z6GV1G/jtiSjsXXwB5daUvnI07Mek9G/t/bL7+w+pL38rEEoVYJpfIFBKpWCQ2Uka90agz6rVGvcag85C7XJ++jXkJbfjt0NrL+2wX8Va4XZ++jWTfkSNHjjz55JObNm16vcWuNv7+qK6GTAaFAgoF5HKIxTAYoNFAq4VGA50O/v4oLLQzlgOQkYGYGAwejNdew4ABqKjAmTN45x3cvYvoaKxZw01MevRRJCbSDXNyohtmClRpaphGg0mTLEzo5uWha1eIRKzNkMlgNEKlgkoFjcaWvQGwYQNiY9khHw+8vXHjBp+4JPZs6F8eikJKCo4fR1ISiotRXg4PD4SGonNnxMRg4kT7MUn/NNiwoX8HKtS1Pxdm/HwvI1tZVK5SNujVfk4egS7eXT1DHmvfb2RwH3I/0D8JNmyoY1GpsHkzfv4ZWVmorUVwMKKiMGMG5xnqvyeO3l/+fw6RCNHRnHfmEPjz4efkMaPziBmd2yZI5F8aZ2fExiI29kG3438TR+8vLyAgIPB3QrChAgICAvwRbKiAgIAAfwQbKiAgIMAfwYYKCAgI8EewoQICAgL8EWyogICAAH8EG/rXQSaTMX8F/gIIP+j/BIIN/eswePDg3r17h4U5PrqHwAOhZ8+e4eHh/fv3f9ANEbDF336tp4CAgEArEPqhAgICAvwRbKiAgIAAfwQbKiAgIMAfwYYKCAgI8EewoQICAgL8EWyogICAAH8EGyogICDAH8GGCggICPBHsKECAgIC/BFsqICAgAB/BBsqICAgwB/BhgoICAjwR7ChAgICAvwRbKiAgIAAfwQbKiAgIMAfwYYKCAgI8EewoQICAgL8EWyogKZAyWUAAB7jSURBVICAAH8EGyogICDAH8GGCggICPBHsKECAgIC/BFsqICAgAB/BBv6Z+fLL79cu3btg26FABEXLlyYO3euVqt90A0R+ONoexuanw+lss1r+evy1Vdfbd269UG3QoCIo0ePfvPNN3l5eQ+6IQJ/HNK2Pf3ZsxgzBrNmYffutq3or4tarVapVA+6FQ+aixdx+TLy85Gfj5ISeHuja1dMmIDhw5vnLC7GunXYtIlHJXfry5NLfr9XX3GvoaKwodJJIg9x9Y0O7jWh/UCZWGKeU08Zlqftfqv/dC+5q/lxtVoNQPi9/la0pQ3V6bBwIYxG5ORwLXowJ+V4QbrBaGhlE/r7d3m1d4y1T+vrMWUK6uogl0Muh0IBuRwSCQwGaLXQaKDVQqtFp07Yu9d6HdnZePFF1NWRtkksRocO6NIFXbpg7FiEhXH7Svb46Mp3t5SFFEW15iSdPYNX9J/BqcjChbh8GRIJFArIZPRfsRg6HdRqaDRQqxERge3buZz05k3s3Yv4eGRnA0BQEDp1QseO0OmQkICPPsIjj+Djj9G/P52/pgbjxnG9pBXq2kO5Fw7mpFwsvwXASSJ7yD2oi2ews0R+s+bef28lhrj6rhr47ONhg035KVCvJn9x/O6lDwfP4VRRSz79FPv3QyqFQkHfflIpKIq+/Ux3YHAwDh2yXHz2bGRns2Xlcmi1aGyESoVduxAebr3ir7/GV1+BXHOQyRAUhNBQPPooxo6FszOnr1mjbZh9+hONQSeTSBViqVwik4klYpFYbzRojXqtQacx6A2UYVnk02NDI01FytXKuWc2ag16uUQqt15kxYCZI4N7W6s3JQVLl4Ki6Otj+isSQa+HTgeNBjodtFpQFLZvR0QEp+/E0pY2dNMm3LwJAMXFXIvW69RqvbZBry5TKW/WFDDHveSu/f06KyRykahJfiNFqQ3aGk1Dbl2pUtvAHL/XUGHDhspkiI5GbS3UamRk4PRp9iMfH4wejeBgODmhZ0+bbXV3R1QU6utRUYGkJBTcb227doiJgZsbmrW1vh7Z2diwAVot5HLMn4+330a7dvYuCSlKbYNKr23Qq3NrS4saK5njYW4B4V7t5OImvzhFQWPU1etUd+vKS1TVzPEQV1+uNjQiAq6uMBjQ0IA7d3DyJHQ6+iN/f0yYAF9fDBlCfLqSErz1FnbtAkUhNBTLl2PuXHTu3CRPQQFWrcKQIdizB9OnQ6VCTAyuXcPzzxNWojHotv7+48bfDjfqNQqJbEbnEXO7PzbAv7MI7E9Wp1N9eePky+e2pna7+cGg5wGsurhn/52kx0L7i5v9stzp3h0jRqCuDqWlOH4cGg193MUFY8age3e4uKB7d6vFu3VDejpu3GCPuLlh5EgMGoTQUJsVd+pE3/oVFThxAvX1bIPGjIGTE3vTUhRKS5GVhcREKJXYvBkeHli+HIsXQy4n/JoKiWxYUM86XWOVpv5S+e2c2hLmoy4ewUMCu7vLnOUSWUePQOa4s1QxNLBHg15dpam/WHYrt66U/dZeoQ/7d3WXOcklsjA3fxv1+vlh5Eg0NKCkBImJqGSfBoSHY9AgeHtDLoeLC4KCCL+KJag2orCQcnOjAAqgnJ1bc6bHj7/rs/MZ07+smnt282dU5Mw4tc6U/7nETwlrMRgohYJub1AQVV7Oq60HD9KnAKizZ23lvH2b6tePzunlRV28aC1jZGSkl5cXj7ZoDLqgXbNM16HP/pc1Bp3t/Lm1JctSvzblH/fjSh41mjN7NnslsrK4lNTpqPXrKXd3CqDc3aktWyiDwVb+LVsoqZQ6doyKiaHrs34xzfnp7sV+373qs/MZ350zlqftqlLX2cj8a1lW2J45H1zeF/fbEdMl2nztaMtsixcvBpCRkUHSgGZMmsResbQ00lLp6XSRzp2pnTsptZp7xS+8QJ9CLKYKC23lPH2aio6mM0dGUiUl3Cuj0suzmcd5WsIHRspot0haaRZTZNbPH/OolKKo9evZyxsby+8clmmzfuiSJezLTaWCUglPT35nyqmlX0HdPEO6eobYzR/h23H36H+PO7biamVuiKsvYS0FBWwvYMoU+PnxauvVq3TCy8uCVGdOly44dw4dO6KiAjU1mDoVv/8ONzdetVqmqKFSa9Sb0uPa92/WA23JQ+6BHw2eW6ZSHslLJb9u1sjPpxN9+6JrV+JiSiWmT0dCAgBMnIjt2+11qIBXXkFCAh5/HAYDALi7o18/2yUoUO+l/1/ctSMAOrj5bx3+8tDAHraLPOzfdVnktJUX91CgRZKhQbaHJ5zJyKATPXti0CCiIhSFjRuhUGD1aixZAim/p/nKFToxYICd8dDo0Rg1CsuW4ZNPkJGB6GikpcHHh1Nt16vymPQ/wh8x7/JbL5LPpGd0GcGpOgbm8gJ4/XV+57BM28zL//IL9u3D0KHsEe7DeRN5deyANDq4F2EpmVhiGoqGupLawrNn2fTYseQNtHKWkSMhtndt3dzwyit0+u5dfPst31otk1ySyaSHW9eMmvFWv+kAQt34vUNo1GqkpdHp0aOJi+XkICqKNqDz5uGHH+wbUBNr1sBopNPR0ZBIbORt1GvmnNloMqCRvp1+eXydXQNqYm73xwKdvUxpN6lThG9HoraRkZ2NwkI6TXjFGhsxcyaysnDlCt58k68BVSpZ6/LII/bzi8X4+GM8/TQAZGdjwQKuFaaUsNID4ROdcv9OFkFEbgSa8csvdKJnTwcqZ0Cb2FC9HosWYf58TJzIHuRrQ80NwTAub/5OHkEAyPtTjPUTiTCC36vO3HKMGkVUxLzHxPzIDiKF16ULcw8Al3ePRVJT2U494ZXAzZsYPJjW9l5/HTt22H8JMUREYPJkOj1ypI2MjXrNkyfe+zH/VwB9fB46OG65h9yFsBInieyV3nQtgwK7SUSOfHbMX+EkV+zWLQwZgqAgpKSgB9ErwApJSezrh/SnAj75BAoFABw4gMREThWmlPxuSvTwbu+rcCcpcqGUNru9fcKaOUIQYv6KIv+WhLSBDd2yBUVFWLsWwcHsQb421NwQDA3icLOEuPoxf0lgbuLevfkO5C9c4Gw5zFX5xkZetVoluZi+dOQ3KwC5WOqjcG/lWN78hWRb0qCprMTkyaioAIBJk7BxY/OJOLswU/PWrzwFamHS1vSKbACBzl4Hxy3n+kD2vd/3jHb0QN7chtp9hR84gEcewcqV2LQJMpmDKpZIEB1NWqpDBzz6KJ3euJG8tpzakuJGeuqS8Bpm1xaXqmo4FWkJ11cUJxyth5aW4p13sH49fH2bzHXx7ofeNwTdvEL9nTgoqibdKtSNyBbk54NxiyYZ0FiG+aG8vNC3L1GRW7fYdJcufCu2gLkGMjyI2/DHSBkJr5s1mCsREUEgl+l0eOop3LkDACEh2LWLswEF6Cl7V1cMGGAty3vp/2fqgQLYMvxl8vcKQ0d3euKY05CIBOaK9eoFf+tTzXo9YmORkIDERHTr5tCKBwyAO5cLMnYsfvwRAD2tTyblm3eJosluy/Pmw6lgB9hQnqNM6zi6Hxobi/BwzJ8PoPX90CZiqPW7tlxtYR1UaWO1VCQJcPIiqcgxrylOYqiJgwfZ9AxuvkS24a2BGCmqVtfYmrG8Wo3UVDpNdDGXLcO5c3R640b48jLfJhs6bJg1XfB4wSWTBgrg+W5jRrcje8k1pZ2rj1wsdZEqInw78WmkFQhHmoWFGDUKpaVIS3OQAVUq2Qklrvc944Sr1+P8ecJCydyHlYx+KoIoiky5bgnzaPbsicBAWzl54FAbev489uzB1q20BWm1DSUxBEaKGnlkWVFjVbPjSm1jZ48gQg++ByOGnj2LpCQ6/cQTGDiQV8WWIRFDL5VnJ9y73OxglabOU+7qw72PxsBNDL1xA5s332/oMHqyggdeXoBVMVRj0C1Po1fKOUvkyyJ51iKCyF3mPCiga7NlS63E/BVuTc5NTMSQIXj2WXz7LVz5SIKW4CeGmjB/1WVmWs/XBEYM7eUdRniPMf3QP6cYCkfaUIMBr7yCuXMxmF7OgYAAdoaUlw0lEUNTSjIlInE7l+Yjxt4+YQkxpKE6mJu4Tx+e3SDOYmhVFV58kU6Hh+M//+FVq1UYDaS3T5i3wvI4a9vvx36vutvsoJ+TR8bTW1pTNTcxdPFi6GkHLLz5Jv9aTY50VizQ578fy68vM6Vf7DmBmV7nQYNe7XCvJvPZxJavcIrCBx9g3jwcPIiXX26bijmJoSbM1ziZO69bJ7eulBVDyUbluXWlTPeo9TPyaBsb6jg99IsvkJdHO6aYEIvh74+SEgD0X46QiKH77pyzdk+7SZ1IankAYmhlJR5/HLdvA8DDD+PwYVsaGHdINJA6nepEwaWXek1o+RHhdbMGBzH0+HH2hgkKwvjx/GsNDMSLLyIqquUn5Wrlxt/oxZJikeiF7o/xroQC9UyXEdM6DeN9BoswV6xHj+YjzepqzJ6NqipcusTVEZNLxVzFUDR9opneg02YTiiI9aWm+umfUQyFw/qhFRVYuRLvv9/cFjDDee79UBJDkFh4NT77F0L/Pmv80WJoQgIGDMD58/DwwObNSE11sLtaUw3E2tv7m6yfJSJxP7/OFj/lDTcxdMcONv3cc3xdHAEAYWHYvt3ilT+Yc75BTz/kY0IiW+NyIIJoQ9T8MLcA3mdoyZ07uHePTje7Yunp6N8fx45BKm0DA1pby18MBegegIkQ+ytfYNYlAkD4zJ5vIoZaX/RqkzYVQ+Gwfuibb6JDB7z0UvPjwcH071RTA5WKU6gCc0PQw7t9mYqeODLCqNJr79aXH8xJ/u5OMoCoIJ4X18QfIYY2NKCgAKdPIz4eKSno2RNvv41Fi5pIxo7D3Ce55c1KgTqal/ZeevzIdn2kIkfqeuAkaSiVOH6c/e/cuY5tCcP3OSlMekpHCx3VB4u1V/iOHXjtNfpiJiUhIwORkQ6tOCmJXtkFXjb0spmSTrYUgrktw9wCChsqCxvsKwDJ97uufXwe8uQlhtp4RTkKR9jQX3/Fzp04d87C+hBz96aSEnTksLTDvBu/5MJXSy58ZTGbn5MHyQJQG3BzxLGIueWIjcVbbzX51GhkxSNXV6xZg/nzWxfkwA7MC99N5hR37agpTYGq16mq1PVXKu6YxEGuPk8kcBBDDx1iL1qvXrZCa7SC/Poyk0MoABFEY0PtLAP942k50mxsxMKFKCjA2rVYsoT+KC4OO3e2TcU8xFBwtqHmymZ+fdnIo8s41eYQr6Y/qw01GrFoEf7xDwyzJBI1m5rnYkMZQ9DFI3jD0PnMcT1lrNepMqvv7s5KLGqsbOVAPi+PFUMdMJD390dpqWX3Rq0W9+7hp5+wciUdbWjrVtYz3HGYayDOUvnJAvpep0BpDbpylbJerzYd4S3S24CbGMrAIaATN07fu8qke/l04OET2tYwMx7duyMoCLdvY9o0jB+Pr7+GwYBPPqGFx/h4rFuHAAeqCEzF/MRQZqrb05PkNjbvEn0S9QLJwPxwburHV2nnP95iqO35OofQahv61VfIysIPP1j+lK97U359GWMIRrXr21KBntTh4bEh/cb++HYUl8VLLXGwGDpihFX/cLkcnTph0SKMGYMJE5CaikGD8O67WL6cb62WMV+PvGnognHtm9zfRoo6U3T1+cQNUrHEsSu+wdW/yzzYO2GMDe7cvT8dD2Cgv42Amg+GnBw2VuKoUTh4EIsX47PPMGUKAEgkeOklrF4NABoNtm/HypUOqri2lu1I8rjvjxxh0zExJIulzPWlKR2Hkngp5dUdYYr8acVQtHZOqaoKb7+NNWusto6vDTWXn61149u5+gAY5iAbKhY7Qgy1uVibpkcPfPwxABgMWLECx47xqtUq5jfrkMDmrthikWhMSOTQoJ5RgT0cu+IbXP27CtiwsG1nQ81Ft57eHdqoFt6Yv8KTk/Huu0hMpA2oiQUL2PXA27axIVlbS3Jyq8TQ/fvZ9NSpRBXef6J7+XQgdPNkxNC+vjzF0GavqDaidf3QFStQXw+KgrUNf8wn77jY0CaeoVZG64UNlR5ylx5eFh6Mer1aY9CRDNzMx57e3uQNNMPccpDYUABPPYWAAJSVAcD8+Sgs5LO60Qokd56RMo5q18dRNTJwEEO12ibOMY5ZdmOBew0VTJpZqWmbDy7v+/b2WbFIrJBIZWKpXCKViSUiiHRGg8agUxm0OoP+46gXJnZwwJoIcxsaEYEdO+DSNARKUBCmT8eePQBQXIz9+zFrVuurbSqGWlThbFBayo6QQ0JIPNIIFxyaY76ynvfKWn6jTKMR9+6hA/ELtxU29PJl7NgBb2/Y2HWSWQUBjv3Q+4agm1eon5OHxTxXKu4MD+plcSXS6ovfBjh7xUbaeUPm5bFhLh0wkPfxQR8ywySRoFs32oYWFyM72+a+DRzIry9jel42XMFv1hSsGjjTITWaw0EMNRjA7Fbi6cl1b4kmFBdj2jSkpFj8UG+2nUwAmWv92NB+3go3jVHfqFPn1Zd9n3OeiRnazSt0asehXgq3hwMc83uZL+4wGcqWvP46+1FcnKNt6IAB8LD8fFnlu+/YPuy778LJvjdx0yWePDxDeQr3/DxDv/kGBw9yGB/ytaEUhUWLMHu2nclCjYa9xMQ21NwQ2HhrjW8/4FFL06xVmrr9d86lPPmJ3YocLIYOH86hO2kKHWbit98cZUPNNRBrl05l0Aa7+PTxecghNTJwE0OdneHuTm9C1RoDCiA+3kZ4bz+zpRlyCdHdPiig66AANmp0Vs09UwxgiUh8ZPxKToFvbGM+0rQRM3TgQERF4cIFALh4EamprZ6Bq6vjL4Y2NmLdOjrdowfmzCEpRDKsbEaymST1B4uhmzfj1Vc51MJXEdu1C5mZ7NW0hkLBjpCJbWgTMdS6DQ1x9e1gaTeVL2+cHNWub3ubG62YeABiKEM+G5rbgbOtKQR3nrNEfmryWpL44ZzgHPmPccyurraZzyZGIz7/HC+8YO1zk2huokbTYC2b1dNTVN79bRQG+oc70ICi6ZSx7QVyr73GpuPiWl1xa8TQjz6i/S3FYsTF2Q53zcDclr28ra48blGElaTIY7yak5vLRwy9cAFZWZg2jUNFvGyoUolly7BmDdHDz32pEu+YoQCU2oZtmT/N70G0apCxoZGRdMwKzvAQQwHk5rJKsYsL/x0FW9B6n2Qb5Oc32VChGZxjhjJmQ6OB0kLkLSLi46FQ4IknrH0+wiyAv/mme4Rcq8pjXMFGEO8FQAj5K3zqVHYt24EDrFtRayvmKobm59PToQBWr2ZDiNouZDasJJwBvlNbbBZm1AEDeXIbunUrnniCm7zBy4auWoXAQNL4B8yPX17ORpewCSuGeoZwffPHXTsa7OIznMDz0cFiqKcnh3UkX5mtF5g1i7MgZQUeNys5y5ahUyf064eoqCYqNwOz8J10qcKkSWya6ctzorIS//oXtmyxsUh0VLs+jPtBWulNrjWkEKya5Q35fKZMxj5tej0+/9xBFXMVQ994A2o1AMTEYMUKwkKEw0pzzjfZL+SPWyafnIz4eDz3HLeKuNvQa9fw+efYvJl0dTPTDzVtsmqPJoaA4+XLrL679fqPL3LshMIhoUaio0ljhubnY8MGOu3jg3ff5Vt3c0gcwviRkID162nTmZraRIcwcfMmu0yeNHzduHGsCnz0KOc2GY2YPx/jx9v+8TzlrjO70OOD43fTmdkhQk7do1eUy8VSx7qX5ubi7v2YWSS334svshL6jh20KeNDXR3S0+k0p77D22/T+9yPHIk9e8ilf/P3EKE3NyOGikWiIQF/kBiqUuGf/4S/P2H3moWjDdVqMWcOpk7lMG7lGM2+6awIhzd/tab+hbNxLjLF051JRpJNRlJEY8+W8IgZ2tCAKVOgUgGARIKvv3bgkvmmYqgj+6Hmyp2fn4WlfUzoPhcXwmkGQCrFmjV0etcublFpKArz5iEvD9u22c3774inTOE+8+vL9t1JspufIbeu9FzxdVP64YCuTpJWbrvRBK6vcH9/zLzvSVFR0YoNDHmIoTodFi/Ghx8CwLRpOHmSU+81mfsGSkzM0L4+HXmLocwrivBbxsbi9m3MnMk59A1HG7p0KS5f5hbnkasNNQuQRW4Iihorp5/68JaycFb4I65Shf0CwJkzdCIyku+2zefPcxNDS0owdiwdhEUqxZ49NoQ8HiQV3w9wS+zGTAgz6+Pmhp07my9LKShgvTNWr+YShWrGDDzzDADU1+O111hvJ9s0NmLuXKSn4+TJ5u6Ulujg5v/RYDqgybuXvjX3GLWBkaL+fZ4N6urwDZSY208kItUkmU1gAcTFkV4tqxUTiqHZ2Rg+HHFxEIsRG4t9+5q4lNgjr66UxMemWRFmZT1vz1DmW4LAhur1WLgQW7YA4DyQBwcbqtFgwQJ89hkAbnG0zcfvubm28zboNczoqatnSICzfdtWq23clvnT8MOxlyvuiCCaRxYdMjWVfU3Z243cOt99Ryfs7mmu02HbNkRE0CPeTp2QlOTYzT8uld9m3Jh7e4fZzsyVQYMgl2PfPuTmshtomtDpMH06bWSXLsXSpRxPvXMnHfTzwAEsXGhfMU9LQ2Qkyspw5gx50NU53cYu6DkBQJlKOfXk2rw6O5qSyqB9KWnL9ar8Jx+i4zw5dgOlhgb89BOd7tiRdHFH+/Zs+to17N3LvWKdDocP0+n+/e10Jy9exIwZ6N4daWl4+GH8+ivWreOw2SoA4HBeKpMmDLR4xKzIAH+em4wxjyZsiqF6PQ4fRu/e+OILAOjVi481sNdtzcnBmTP0L1ZeTh8cPx6zZ+PJJ63OopSUICkJZWVITm7ybdavh0qFoCB4eSEmxvR7ZNXcu1FToDHoShqrD+emVmvqTXk1Bl189i8tB1AU0KhX12lVhY1VVytyrlTcURnoqEiPte/3kJW1KHo9Tp9GVRVUKty8id272Y9OncIHHyA0FE5O6NHDppt8XR3OnEF9PWprceEC/vtf+rhUil27LGzLpdGgpAS//YZjx1BTAwABAVi8GK++SriHl23Ol94obqjSGHV3lMX/l32OOX7q3pUPr+wPcfV1lTqJRaIunu1a6Q365JNYswbp6Zg+vclxpRLz5tHvheXL8f773E/t7IzERCxYgN27sX07Ll3Cxx9bHtyanuGEBKxciaVLua7s+mDQ8+3d/Fdd/G92bfGII7HL+j39XNcx7rLmrqn1evWx/F8/ufo9gB8nrg5y9v6l+FqjXtN6MTQzE9evQ6NBURH272dDvxcUYNUqtG8Pd3d0727hkaIo/PQTcnObu2K/8ALS0tCvHwYOtHnTZmfjyhVoNCgtxeHDrENIXR12727eqdRoUFmJW7eQnIzr1wFgyBDMn485cwitp9aoP1v0W51W1aBXX63M3Xv7LPPRN1k/12pV7nJnN6nT6JAIl/vjRbVBd6boaoNO3ajX/F51d/et00yRL2+crNE0uMudFRLZ6JAIZ4kcVigrQ0oKGhtRXY1Tp3DiBH1cLMb33zeZ5DQaUVWF8nJkZiIhoYlLCI9OKAARZXtIMHs29u2DkxOcnaFQQK+HWg2NBmo1Zs60urTiww+xYgXkcvafVAq9ni6o0UAuR1aWSVebfuqj04XWXWaIkYulP0x4x9q9fvUqBgyASAS5HAoFFArIZBCJoNNBq4VGA40Gej2eegoHDliv4/BhPP00oXcBjUwGf38EBWHwYIwfj0cf5epS3q9fv7y8vOoWTpRqg65r/DyVQSsXS+USmVwslYulIpHISBl1RoPWqNcZ9Fqj3kAZn+82ZkPUfIsnJycjAzExGDwYr72GAQNQUYEzZ/DOO7h7F9HRWLOmFfNyJo4exapVuHoVADp1Qt++6NYNHTpAqUR2Nk6fRmkp5s7FqlWtCRv4e3X+B5f3nyhIB+AqVQwN6hnp28nP2UMEUXFjVVpp1q9lt7wVbi/1mrig5wTTE3u84NKh3As7RhB5Xb/xxhubNm3KyMiIaOGv9uijSEyETAaFAk5OkMshFkOvh17P3oGTJlmYXcvLQ9eu9K1r+ieTwWiESgWVChqNrQcRAGbPxrffchj5+/ggLAxhYYiMxKxZXLebvVSePf7YSrFIpJDI5GKpQiKTiiUUBT2l1xuNWoNOY9QBODr+HWYhQ1pZ1qSfVktEYrlEalaE0lMGpogIoh8nrh7gZ7UxGzYgNpZVenng7Y0bN/jEJbFnQwUeNNZs6B+PSoXNm/Hzz8jKQm0tgoMRFYUZMzjPY1qFopCSguPHkZSE4mKUl8PDA6Gh6NwZMTGYONEhnXcAd2qLE+5dOVv0W0F9RYVKaaCMgc5egS7e/fw6j2vff6B/OO9oLDZsqMBfFUfvLy/w18XZGbGxiI1tswpEIkRH84kHzJHOHsELewYv7DmxrSsS+Dvg6P3lBQQEBP5OCDZUQEBAgD+CDRUQEBDgj2BDBQQEBPgj2FABAQEB/gg2VEBAQIA/gg0VEBAQ4I9gQ//syGQyGcHeswJ/Bky/lPB7/a0QfOz/7IwaNarAfBthgT8xgwcP7t27d1iYg2O+CPyZ+X+m8jfwuDrpPgAAAABJRU5ErkJggg==;rotation=-90;" parent="1" vertex="1">
                    <mxGeometry x="430" y="138" width="159.32" height="44" as="geometry"/>
                </mxCell>
                <mxCell id="21" style="edgeStyle=orthogonalEdgeStyle;rounded=0;orthogonalLoop=1;jettySize=auto;html=1;exitX=1;exitY=0.5;exitDx=0;exitDy=0;entryX=1;entryY=0.5;entryDx=0;entryDy=0;" parent="1" source="11" target="20" edge="1">
                    <mxGeometry relative="1" as="geometry">
                        <Array as="points">
                            <mxPoint x="730" y="160"/>
                            <mxPoint x="730" y="353"/>
                        </Array>
                    </mxGeometry>
                </mxCell>
                <mxCell id="11" value="&lt;font style=&quot;font-size: 20px&quot;&gt;int&lt;/font&gt;" style="rounded=1;whiteSpace=wrap;html=1;strokeWidth=2;" parent="1" vertex="1">
                    <mxGeometry x="579.9999999999999" y="130" width="120" height="60" as="geometry"/>
                </mxCell>
                <mxCell id="16" style="edgeStyle=orthogonalEdgeStyle;rounded=0;orthogonalLoop=1;jettySize=auto;html=1;exitX=0.5;exitY=0;exitDx=0;exitDy=0;entryX=0.5;entryY=1;entryDx=0;entryDy=0;" parent="1" source="15" target="11" edge="1">
                    <mxGeometry relative="1" as="geometry"/>
                </mxCell>
                <mxCell id="15" value="&lt;font style=&quot;font-size: 13px&quot;&gt;$$n_{bits}&lt;br&gt;$$&lt;/font&gt;" style="text;html=1;strokeColor=none;fillColor=none;align=center;verticalAlign=middle;whiteSpace=wrap;rounded=0;" parent="1" vertex="1">
                    <mxGeometry x="619.9999999999999" y="240" width="40" height="20" as="geometry"/>
                </mxCell>
                <mxCell id="69" style="edgeStyle=orthogonalEdgeStyle;rounded=0;orthogonalLoop=1;jettySize=auto;html=1;entryX=0.5;entryY=0;entryDx=0;entryDy=0;" parent="1" source="17" target="5" edge="1">
                    <mxGeometry relative="1" as="geometry"/>
                </mxCell>
                <mxCell id="17" value="&lt;font style=&quot;font-size: 13px&quot;&gt;$$\text{bit}_i\in\{0,1,...,7\}$$&lt;/font&gt;" style="text;html=1;strokeColor=none;fillColor=none;align=center;verticalAlign=middle;whiteSpace=wrap;rounded=0;" parent="1" vertex="1">
                    <mxGeometry x="100" y="60" width="150" height="20" as="geometry"/>
                </mxCell>
                <mxCell id="59" style="edgeStyle=orthogonalEdgeStyle;rounded=0;orthogonalLoop=1;jettySize=auto;html=1;exitX=0;exitY=0.5;exitDx=0;exitDy=0;entryX=1;entryY=0.5;entryDx=0;entryDy=0;" parent="1" source="20" target="58" edge="1">
                    <mxGeometry relative="1" as="geometry"/>
                </mxCell>
                <mxCell id="20" value="&lt;font style=&quot;font-size: 20px&quot;&gt;lognormal&lt;/font&gt;" style="rounded=1;whiteSpace=wrap;html=1;strokeWidth=2;" parent="1" vertex="1">
                    <mxGeometry x="579.9999999999999" y="322.72" width="120" height="60" as="geometry"/>
                </mxCell>
                <mxCell id="61" style="edgeStyle=orthogonalEdgeStyle;rounded=0;orthogonalLoop=1;jettySize=auto;html=1;exitX=0.5;exitY=0;exitDx=0;exitDy=0;entryX=0.5;entryY=1;entryDx=0;entryDy=0;" parent="1" source="23" target="20" edge="1">
                    <mxGeometry relative="1" as="geometry"/>
                </mxCell>
                <mxCell id="23" value="&lt;font style=&quot;font-size: 13px&quot;&gt;$$N, C$$&lt;/font&gt;" style="text;html=1;strokeColor=none;fillColor=none;align=center;verticalAlign=middle;whiteSpace=wrap;rounded=0;" parent="1" vertex="1">
                    <mxGeometry x="620" y="422.72" width="40" height="30" as="geometry"/>
                </mxCell>
                <mxCell id="70" style="edgeStyle=orthogonalEdgeStyle;rounded=0;orthogonalLoop=1;jettySize=auto;html=1;exitX=0;exitY=0.5;exitDx=0;exitDy=0;entryX=0.5;entryY=1;entryDx=0;entryDy=0;" parent="1" source="27" target="34" edge="1">
                    <mxGeometry relative="1" as="geometry"/>
                </mxCell>
                <mxCell id="27" value="" style="shape=image;verticalLabelPosition=bottom;labelBackgroundColor=#ffffff;verticalAlign=top;aspect=fixed;imageAspect=0;image=data:image/png,iVBORw0KGgoAAAANSUhEUgAABQAAAACjCAYAAADVVLMQAAAABmJLR0QA/wD/AP+gvaeTAAAgAElEQVR4nOzdd5gb1b3/8feo7a4rxgXbYIpNM81giIHQOwFCJ3DTb0ghhSQ/SK+EG5KQTkJIuSHhEggBEkihl9DBNNNDc1ljsI1726Y2vz/OyDorSyNpd6QZrT+v59Gzo52j8/1qJM2Mjs6cAyIiIiIiIiIiIiIiIiIiIiIiIiIiAJ2AC6wIOQ+RqIoDd2A+J4uAiSHlMdfLYc0g6+kknM/8eV7cPHBqk2OLyOYjDnwNeBno9W4Ph5pRc3QytM/nonIsDoqO6SIiItJ0nQztE0aRwboM8xnpA/arUGZL4ELgHuBtIA1sAOYBf8GcHMcGmUerf1kA+K0XewOwVwjxRWTo+xlmP2PfOsNMqEk6Gdrnc7UcixPAOcBNmEbCXqALmA9cjzkWOzXEGgmcD9wFLMUc09cBrwH/Bxw70Cdh0TFdREREmu6XmAaK34WdiEgA3gdcBGwTUH0nUfwC+dUKZU7EnHiXfuEsvT0GTB5ELkF9Waj2mQ96G9qGAa9jnseLQFsDYojI5iuJafBxgSzwZWCWd2t11fbNQ/l8rpZj8TRgDtWPxfcBY3xiHQYsrqGe24EtBvGcdEwXERERERmERZgT0QMCqGs05pd/F3gGc/lRqQMwPQNcoAf4NjADGA9sDRyP+ZJQ+MLwIpAaYD5BfVmoJshtWM5hFLfH9xsUQ0Q2T9tS3L/cGXIuQWv0vjmqajkWjwPeoPjaL8Y0ep0NnAX8FHPsLKy/t0KsmZheg4VyTwAXAKcDHwWuwPRADOI9pmO6iIiIiMgAbUfxJDSIE91LrfqOqlDmfqvMyT51/csq99EB5tOMLwtBb8NK/u7F6AV2aGAcEdm8zKC4D/vfkHMJUrP2zVFUy7H4d1aZezA900rtACyxyh1XpsyT1vpvVYi1K7DcKndELU+iDB3TRUREREQG6L0Ed6I7HtOjzwUerFCmHch5ZZZUqe9UK7frB5hTM74sBLkN/dhf0v/QwDgisnnZm+K+5Tch5xKkZu2bo6aWY/FwoNsrsxYzJm8ln6G4HX9Zsm4va93sKnl9ySr7wyplK9ExXURERAZkS8yYKA9gJiDo825vYS5P+DTlfw2F2gYPPhK40auvD3gT+AfFX2In4X/CXTjJecy7n8L0gnoUM6hyGtOAcjMD/yXVT5zioNBvYH6hXAu8iukhcFCFx02k+CvvavxnnDuC4jZ4jv6XeRbGh3vCuz8Gc2nKc1693ZjJIq4Adqzh+bQDnwRuw7wmvcB6zCDX1wFn4D/IddCvx0C3b1D5fBf/cXoGMjvdN63Hn1mhzASrzONV6rO/lA70kqHCdlrt3R8NfANzSdQqzJekeZieEH7vo042/czXuw0Hs88peIBij4HxVcqKiPj5Mf77sE6r7ALvf4WZgffF7I8Kl36OKFP/1pjj9sOYfWcaM9bgXOBazHlSLTqAczGz2S7C7DdXefHP99bb6tk3d1L9fC5q5w/V1HIs3gkzrt/LwJVV6rOPxf8sWfcO4E+YYTvOrVLPIVY911YpW4mO6SIiIlK3d1LbBATzgJ3LPL4T/xPGS6rUewmwu3X/p2XqeNFb9zxmZrV/+9SXp/qJVz22B56u8hxc4PeY2eNKnWmVubFCjDZMY1fhxGfPkvWF8VdewVwaURgwudytCzjB5/nMABbW8HwewYyJU06Qr8f2DG77BpFPIxoA7RPzZIUyMUxDp4sZb8jP8VY+VwwgHzun5Zjt/hqVn3Mvld9HnQzuy8Jg9zkFH7HKfsbviYuIVFFPA+B/vP89g2lY2VBStrQB8MwyZcrdfo1/49kMTEObXx2v0r+xJ8gGwKidP9SilmNxPfalmN9Ng6jnaKueXw+wDh3TRUREpC7DKM5UlsWMk3IQMBXzi+i7ML9MFg7IL2IaLWydVD5hPNt6bBdmNr1dMD3hjsf8AuwCP7HK/aBMPc966+Zifl3t9R5zCDAd88u5nWcX5pfQwdqC4gmWi5kl7Qgv/8nAKZieW4X1v69QzzVWmZPKrL/YWv/FMusXeOvewpxYb/AeczCwG2Zb2mPEraf8bG1TMCfBhXJXAgdiTtS3Ao7FDGxdWP8E5QfLDur1CGr7DjafGKZx8VdWmYO8/yXw/0JWzp5WPddUKfsjq6xfQ+OfrXIH1plPQWFbL8b0dujGfOYPwbyPjsP0zLXfR5PK1NPJpp/5WrdhEPucgnFeHa73fEREBqqwD7MbeH5LcR9mHwuf89a/grlcsbAP+oV3v90quzvFSR9ymB85D8LMODsL+BT9x4P7bIX8tgaWUdx3/hpzzN4XOA24xapjPsVGyHqOb51UPp+L2vlDLeo5Ftfqo1adXx9EPb+06jlngHXomC4iIiJ1sccVu8in3PetcseUrOuk8gmj3VPtlDLrU5jBlvNWuXINgE9RPLlIA4dWyPNOBn9CZbuc6tsniTlRKZQ7pEyZLSj24nuD/r0DplP8cvAg5U+M7EayLObX1nJusMpdVmb936z136xQRwK42yr3iTJlgno9gtq+jchnMGPdfNaqp1rvhS0wvUhczMn7VzFfDFOY98n+mIbRQn2XDCIv+32UofKl1ddZ5X5cZn0nlT/z1bZhEPscW+HLZB+mJ62IyGDUMgZgodf625hGlQ/41FdoIHQxP4KW8w6rTGeFMvYPiR+qUOaPVplvlKyr5fjWSeV9e9TOH2pRz7G4FgmKjb9pzIzRA3EuxfF/n2XgPRN1TBcREZG6nE/xgOw3A+kozC+J0+n/yzZUPnHYx6rbb3yzbTEnUrU0ALrAz33qsi8fGExDCZhx9goDR79C+V+yC+zBiyuN5XIMxYbOQuOcAzzk/W8dlWc+s0/y/Man2dEqt7Bk3WSKv6wuovLltNC/B0S5gayDeD2C3L5BvT+CagC0v6iVXs5dzijMGD3rrceV3uYy8Nl/C+z3UaXelGB+uff7MtrJwL8sBLHPsf3Wqm9/n3IiIrWopQHQPub8tUp93wNu9R7jN65ZoeHDZdNeWuMwDTyFBqNKtrfqKD12D6YBMGrnD7Wq91hcjX2ZeLlz1XIOAM4DvoB5voVLoF3MmHdbDSIfHdNFRETEV2nvMnvm0Q9S+aRuHebX2Jcxl2vUwu6ldqtPuTcwAybX6jqfdfOs5TF11FnO4RRPUm7A/FpbyXOYS27AXI5bzt0Ux277DObSn49iLuMF+H+YS32r+YvPurneDUzDqn1ieTjFRrabMSfzlTyNudwYYD82HVTcNtDX43CC3b6DzSdIhTFuXMyYPNXkMdu70kzAecwlNhnqvxy5Er+ZhOdTfB9tB4wNKCYEv8+xt6/f2EIiIo1QbQKHrwEnYo6ly33KzbWWS8fPO5rivtLvfKoTc9xPEeyMrYcTrfOHWtV7LPbzTeBCb/kONu1hWcmZmMu1fwR8DnNJ+IOYS2MPw/QiDYKO6SIiIrKJ0gbA2zAz8oKZue0FzBh00wOINc1afqVK2QfqqPc/Puu6reVUxVK12ddaXo35Zd3vVjhZ3ZLKs/1+CXNyE8NcFnSp9/9/UX3muQK/X//BDABeMNVanmEtP19DnBe9v3HMWDKVDPT1aMT2HUw+QSpcFlSYCc/PFMwlwBdhTswvw1zmvB1mvMzTMV82DgGuwsw6GMRA5vW8j4I8CQ96n2P3dN1uEHmJiAzEi9WL1MRuFCntEW/3XnsVf8swPxYFKWrnD7Wq51hcSRJzafXF3v3ZwFn4N4JWcyim4finmHOaIOiYLiIiIpsobQDsxswKVmhc2RX4IeakbBnmF8UPYcYpq5d9UuP3qzfU1vOtYL3POreOeqqxL9X5KSZHv5s9pkmlBqpuzC+kOcyvwGMw2+ZjNeaUp/q2tC/hsF83u0dBtTpK6/H7tXigr0cjtu9g8glS4b2/uko5BzMz9I6YLxMnAJ8HHsb0jH0N09viRMxlZGAmkam150ElOaq/B1Zay0FMqFMQ9D7H3saN7NUpIlJOLcfTJPBeTI+3ZzG9pgqX9BZu7/N5vH3MW1mxVONE7fyhVrUei/0efxfwYe/+rcBRmInYavUFzLF+OObHzNO8erbEXPnxFGaCl8HQMV1ERETKKjfBxAuYX+r+GzMrb+FSzPHAezC9jt7EDOBbz6+w9mUf1X559TsJDMvwQTx2pM+6OfRv8JxD7ZeAdFcvQtpatgdQtp9PTw312GWG1VC+Xo3avmGLU+yhV+31OpriGDfXYmZQrOTbFN8n5+M/BlM1tbyP7M+s33g9AxHkPsd+Lo14n4qI+FlTZf1OmEa/azGTWczANOjFMTPcFm5+PcrsY/lgep4NVNTOH2pRz7G4nOmYmYwP9+5fgZnMbiB1FXJYCPwd80PeF73/74AZ924wdEwXERGRsso1AIL5JfoqzLh9hQP2lRTHcRkOfAXT1b9SHaXsk41qB/zBNAY1it0oeQrmF9xabw/51PttTI+vguOoPKNfqVou/bS3tX0Sbv9iXctJlV2mnl+7a9Wo7dtKjrCW76xSNkvxEp8xwB6DiFtLQ779BWGgX3j8NGKfIyISJcMwYxwXLoO9BzOO7XjMjzgjrJvfGG72PjioS0brEbXzh0Y7AnOp7zTMsfdTwKfxH6u4Xj+hODzOCQxuMhAd00VERKSsWg66qzGXJX4U2AZz6WWha/9RwAdqjGU38FTr+r9tlfVhsHvlTQiozv0xJ0BgTowKsyNfRm3boI3qjaX2pTr2JR/25SG1nGjal+jWcslPvRqxfaMgR3H8pWpflOzXqpZLlFZZy4P5EljL+8i+bGugl0/VajD7HHsbN+JLjYjIQJ1NcTzkO4Fjvb8rMEN62Px6ZS21lksnCGmGqJ0/1KKeY7HtaMwluqMw57EnYibxqEeK6hN2uRTHU3QwPUUHSsd0ERERKWsgv7rdg5mIoODEGh9nX+a6Y8VSxiF1ZdQcc6zl/QKorwP4P8xlKW8CFwDnYi7ZHY355bSWGV79BtSG/ieR9qyC9vOZWaUOB9jLW+7DzNoWtKC3b5QUGuqqNdKts5b9xjUsmGItV7vsrJrdq6zf1VquNolP0OrZ59hjBDX6S42ISD3sya5+i/+4dn7HZXvijWq9vw/FXGJ6IsHNGh+184da1XosLpiJGXe3A/MD6qGYMQBr9XsvZh/9e/hXMsJa9psZtxY6pouIiMgm7AbABPBu4FuYQYn92DO11Tp2yDPW8tE+5SZjLgGNmgco/vp4Jv1P1Mq5ELM9K5X7AWZWV4DzMI0/L1Gc3OEIzAQQ1Zzqs257irO7vUz/RqL7KY4PeCr+l4wcTPFX/gfpP65gUILevkEbzBenN7y/E+g/dlMp+zNyTMVSRhvFmSCD+FLl95mfRnEG6ZcY+BidpduwEfsce5bAhRVLiYg0nz1e7bqKpcyssjtY90t/rL2X4nH4FCofV0YCdwP/An5B5QbHeo9v9xOt84da1XosBtPj76+Yc4x1mEu1q82sW2oRxQas91cpOxI4yFvO0v8H24HQMV1ERER8OZiDq4s5SfKbhexEijPVfbdkXaf3/xUl/09hfr1zMZe6vKNMvUngDswJYqH+H5Qp95S13s9+VrnfVylbi19Z9V3pU+7DVrnLyqw/ArMNXOCaknVJzADKLmbMvullHj/Xqn8dxRO5Uv9nlbu4zPqrqqwHc5I82yp3cpkyQb0eQW3foPL5obX+jCp1+bnGqmdPn3KjMb0FXMylSof6lP2+Vee1A8zLfh+tp3LP3Kutct8ss76T8p958N+GQe1zbL+1yu3vU05EpBZ7U9yn/KZCmVqPOf+D/74UzLnRKmCxVfb4MuXs/fJPK9T1M6vMd0rW1XJ866Tyvv0q6/FROH+oRa3HYjCv9WCP/9tjfqAr1FNpfOc24C9WudsGGE/HdBEREanLxykeaJdgJqg4DNMINR0z+9mlmEGcC41PpWPVdVL5xOEbVv3LMOOBbIsZw+YY4GFvnX2SHKUGwNHAfKvOuzG/dk7F9LQ7HtMYU2jcW0L/sW/A/Krc6a1/m/7jsBTMwvwC7GKea+lkH4WTvKWYk+slwCcwl/tOwHyBsE90l1eIM957rL2N9vfq2BbzC+4T1vobKmyXoF6PILZvkPl80lo/BzNBy2HUfxL6Wauec6uU/W+rbA/mZPsgzOsxDXPSfJNVZgXmS8ZALKC4HR+j//toPGb72I3IyzCvUalOK5dS1bZhEPsc27NeuT6q9/AQEakmyAbAfa1yXZje/9tgeonNAn6O2XfdRf995z8wx2W7x/tkzD65UOafmN54+2N60d9irVtA/96HUNvxrZPK+/aonT/UotZj8Y6YH+FczKQV76/jVnq+9hUrposZ8/F8zPZ5D3ARZjw8u+Gu2uW7leiYLiIiInW7hGIDi99tOeXHNOmk8olDgv4npaW3HObk4XDrf1FqAAQz7tocqm+fVyh/EvcHq8x7fOL8xCpX+ut6oQHwbUzDWKdPHqsxl+BUsivweg3P509UPvkK8vUY7PYNMp/xmJPx0tiVvgRWsqf12NIen+V8DHM5dLVt8Drmy+lALfLqeRXTuGg3vpbe1mFm8yunE/8vidW24WD3OQVjKTac3+dTTkSkVkE2AEL/XnnlbvdiJkrbnv5XQ7iYS1Jte1Fs9Kl0e5nyE0rUsm/upPK+HaJ3/lBNrcfiT1D9OVW6lZvk7ov07wlY6baQ4mXAA6FjuoiIiAzIXphfop/GXIqSwQxI/Bbm18vPUf5XQ6h+whjD9Px7EDOocsar9yqKg1kfTvEE4ftl6gizARDMczgH+BvmMoceitvnFkwvrnJj4rzbyufmKjGGUWzoy9L/V/nC/+0BrS/CjCG3BtN49DpmzJ9aZhNOYU54b8dcdtSHOTl8FbPdKp0kFgT9egx0+zYin3cCj2JOeLsw2/W8KvWWU3jNVrNpD4FytsL0mL0f09Ozz4vfidkuH8R/G9RihZdTYfbpMZj30bOY91GPl/cvMb1UKunE/zNfyzYczD6nwO49+ZkqZUVEahF0AyDAf2EaNFZjju+rMBMjnIP5obTgTEwDXi/m2PzlMnUNw4wX/ADmWJHGnFs9AHwa//HVqu2bO/Hft0P0zh+qqeVYfJ4VK4gGQDDH0IuBhzA97/ow52oLMT08z6W+2YnL0TFdREREWtJJFA/6Xws5lygqnMAOduZXaZ5vUnxPn16lrAzMfZjt20v5S8NFRGTzpmNx69AxXUREZDNRz5hpmyM1ALae8Zhf311Mrz4Jln1p1x9CzkVERKJJx+LWoGO6iIjIEHA+5lLfB4AOn3K3UTzwz2h8Wi1HDYCt6VKK72u/cW+kfoWJUXqBHULORUREokvH4ujTMV1ERGQIsGcv/UaFMsdRHDz4pSbl1WrUANiaRmPGaHIx4+LEw01nyDgE/zFDRURECnQsjjYd00VERIaIfeg/q91VwFGYmWxnAd+h/+yn7w4ly+hTA2DrOpHi+/srIecyFAwDXsNszxepPNOkiIhIgY7F0aRjuoiIyBBzBmbWML9Z1DKY2eukPDUAtrafYV6/PszMhjJwv8Nsyw2YWQdFRERqoWNx9OiYLiIiMgRtA3wPeApYC2SB1cAc4CfAtPBSawlqAGxtceAOzGu4CJgYbjot6zzMNswDp4aci4iItBYdi6NFx3QRERERERERERERERGRgXLCTiB0F/ER4FNhpyEiocpzEbMugnGYHiEiIiIiIhItV10El4edhEirSoSdwIBddNE1wFbEYt/gW996fMD1OEzCZd/gEhORFpQHSEIyg/YHIiIiIiIRdHfYCYi0stZtAISDge1w3Z8HVN9zwBUB1SUirWFr4FvlVjhwgWsmLBIRERERkfB8BNg/7CREWl0rNwAGrZOL+F3YSYhIE13EXlRoAEzC1V+DlU3OSERERERELBfBIagBUGTQYmEnICIiIiIiIiIiIo2jBkAREREREREREZEhTA2AIiIiIiIiIiIiQ5gaAEVERERERERERIYwNQCKiIiIiIiIiIgMYWoAFBERERERERERGcLUACgiIiIiIiIiIjKEqQFQRERERERERERkCFMDoIiIiIiIiIiIyBCmBkAREREREREREZEhTA2AIiIiIiIiIiIiQ5gaAEVERERERERERIYwNQCKiIiIiIiIiIgMYWoAFBERERERERERGcLUACgiIiIiIiIiIjKEqQFQRERERERERERkCFMDoIiIiIiIiIiIyBCWCDuBQXgBWIHrrh1ULS5LgKeBeUEkJSItJE4POZ4G8gAZyGD2B8QgG2ZqIiIiIiICQCfmHP2tkPMQEREREREREREREREREREREREREREREREREREREREREREREREREREREREREREREREREZHNmRNCzBnAlSHEtW0DjLTurwUWh5SLiIRrC8w+waYZxkREREREou8q4H/CTkKkFSRCiDkC2DeEuH6GAZPCTkJEImNq2AmIiIiIiEhVY8NOQKRVxMJOQERERERERERERBonjB6AkRKbnCQ2LdX0uG7WJfdYNwDxvTtwRja/LTbfmSa/KANtDolZw5oeHyD7cBe4ENu1jdj45r8d829lyM9PQ8IhcWBI2+Dxbki7xLZPEZuSbHr8/LIs+Vf7IAaJg4Y3PT5Abk4PblceZ2KC+E5tTY3tLsuSe7UPgKTjMDPZ/NcA4JlMhrTrMikeZ9t4vOnxM67LnEwGgD2TSYY5zR8hYm42y8p8nmGOw54hvQ5PpdPkgG3jcSaF8Dqsc11e9l6HmckkyRBeh1eyWdbm84yOxdg1Ec5pwhPpNC4wLZFgXKz5x8fluRzzczkAZqVSoYyX8kImQ7frMjYWY8eQXofH02kAdkkk2CKE1+HNXI63cjkSwL6p5p+rQXHfPDEeZ7sQ9glZ4GnvddgjmWR4CPuE+dksy/N5OhyHvULaNz+dTpMFpsTjTA7hdehyXV709s37JJOkQngdXs1mWZPPM8pxmB7S6/BkOk0emJpIMD6EfcLKfJ652SwA70ilQunJ8mImQ5frsmUsxk4h75t3TiQYE8LrsDiXY1EuRxzYL6R982vZLKvz+VBii7SySDQAOtN2utlpa+tuVrz8/Hmn09vTAeBsGSe2R3tPbMfUA82KD8CafEfuse7DAGL7dzwW37ltbVPjA5k/rz2ARZktnKTTkzh1VHOfvyf7SNfxuBDfNfVc/JARS5odP/OPdTOZn57gxMkkTh11b7PjA+Tm9Bznpl0nNiX5WuLUUfObHv/ert3yr/Zti+PkE6eOuqvZ8QFy/+k9hi7isQmJRYlTR73U1Nj3du2We7VvWzA7xJ0SCfZOJq9vZg4Az2cyJwMd42OxZWd1dNzX7Pir8vn2OZnMKQAHpFL/3iWRWN7sHH63YcMBK2G7NsfJntXR8bdmxweYk8mcnnPd5Nbx+BtndHQ81uz4z6fT41/OZI4EOLa9/R/jYrHeZufw0w0bDl8LWw13nJ6zOjr+2ez4AE+m02e5EJsaj79yXHv7c82Of09f3w7zc7lZAGd0dNwQB7fZObyezR7X7bpbjI7F1p3V0XF7s+MDPJ5Onw2wezI5552p1OvNjn9DT88eb+Vyu8cdxz2ro+OGZscHeDGTeXcaho1znOVndXT8u9nx1+XzqafT6dMAZqVSD+6WSDT9XOn33d2zlufzO6RC3Dc/k8mchuumJsXjb57V0fFIs+O/ls2OeTGTORbgyPb2WyfFYhuancNlGzYctgYmDnOcvrM6Ov7e7Phg9s1AbPt4/PUT2tvnNDv+A+n0tnOz2QMBTu3o+Gsb5Jqdw9xs9tgu1x0z2nHWn9XRcVuz4wM8kU6f7QK7JJPPHZZKvdLs+Df39ExflMvtFQtp3/xKNnvU4lxu3OpmBxYZAiLRAJj81iV/ip92VtO+bPbuMOF412sABCBBd9sF425qVnyA/GM943r/5+3DAOIzO+5r+/iWnc2MD5C5ce1OwBY4zX/+Bb1fXHI8QGzr5JNtF4x7otnxs3et3wqYAKTD2gZ933r7WMBhdOw/bReMa/qJRPcTPW3AtkAutG3wvWVHAnGn3VnQ7Bys57/RhSNH3tLMHAC+tW7dsUBHwnFWhhH/8b6+0d9bv/4UgD0Sicc+O3Jk008o/9jVNQXYzoFsGNsA4Kvr1p0MJNtgcRg5/GDdul3p6TkS4OT29rsPbGv+j0OXdXXtAWzlQF9Yr8OX1q49E2Ck48wPI4cXMplDgFkAnx0x4tZ2x2l6N4Pvr19/ILBFDDaE9Tp8Ye3aswG2isVevHDkyLubHf+23t4UsDvghrUNLlq37mhgWNxxVoeRw4vp9IiL168/DWCXROLxC0eOfL7ZOVzd3T0J2AHIhfU6fG3duncDqTZYEkYOv9mwYQfANAC2tf37hPb2Zc3O4fKurunARMLdN58BxIY7zoIwcnh9zZoDgQMBPjZ8+G3jY7FMs3O4dP36/YExDnSH9Tp8ce3a9wDO2Fjs5QtHjry12fHv6euLAXtBOOfM569Zsw8wrtlxRYYCjQEoIiIiIiIiIiIyhKkBUEREREREREREZAhTA6CIiIiIiIiIiMgQpgZAERERERERERGRIUwNgCIiIiIiIiIiIkOYGgBFRERERERERESGMDUAioiIiIiIiIiIDGFqABQRERERERERERnC1AAoIiIiIiIiIiIyhKkBUEREREREREREZAhTA6CIiIiIiIiIiMgQpgZAEREREREREZFoiwGnA1cC/wFWAX3AYuBh4DvAjk3O6RTgbcD1brMHUMdfrccP5HZAHbESwInAtZhtuBazDZcA/wa+AkwYwHNIAe/36n0dWANkgBXA88DvMdsqXmN9DdkmibqfloiIiIiIiIiINMssTCPSnmXWTfJuBwFfBX4NfAHTANUoo4DLgA8HUNcWAdRRi72A/wP2LrNuonc7Avgm8EXgihrrPRP4pff4UmO9257AucB84CPAA1XqbMg2UQ9AEREREREREZFoOgy4l00b//LAhpL/JYHPAjcBbQ3M53mCafyD5jQAHr5nsOAAACAASURBVAE8waaNf2nvZhsG/Ar4cg31XgzcSPnGv9J6AaYC9wDvrlKvGgBFRERERERERDYT2wB/B0Z4913gd8BMzGWnI73bWcCr1uNOAn4ccC5twE8wl8pu5/1vAeYS5MGwG7t+D4yp8/ZklfqnAzdTbBDtA/4Hc7l0u3ebCnwb6LUedwmwj0+978f0FizIe/kfgHlt2oAtgTMwjY8FCcylwn6XGjdkm6gBUEREREREREQken5A/8agjwKfAJ4Bct7/NmDGjNsHeMoq+ynMZa9BGA48DVxAsR3pGkyPuiWDrNt+fssw4+fVc8vh75fAaG95LXAg8C1gHsUx8xZgevMdDWS9snHgGxXqHA78zLqfAU4GPgY8TvHy69WY3pgHeX8LRgL/zyfnhmyTlhsD0F25IpH+0NknuS89f5i7bu00stmRJBLrndFjXnP22ffe1LU33em0t+cblsAGN97zqbcOzj7UNdN9O7uN25cf5rTFup3JiTcSR414ouPyrWeTxG1YfEv2ye5RPecs+kh+fno3gLbzx/1v+y8mVWv9HlI5hB1/s88hCp+HkHNY77rxj61efdhj6fSsZbnclLTrDk85TtfEeLzziFRq9m/HjHk46ThN2Sc81tc3+pzVqz/xRja7J8AnRoz41W+22GIgA/HWLeztEHb8KOQQdnzlEI34Ucgh7PjKIRrxlUM04kchh7DjK4doxI9KDi1mCnCOdf9G4A8+5XuA/wJewTRexYALgQ8FkMtIYHdveS2mcfHPAdQLxcY5MI1XQToOOMq6/2FM42klj2AaXffC9Kh8sUK59wDjrPuXArf61JsFzgNOwPQ4BNNg+NUK5RuyTVqqATB/xz+37PvI+37Ghg1T+63IZMa4K5bt7959+/69O086ue2fd34htvesrqDjZ5/sHtX9rs7/567MbW3/3+3Jj3TnpXdPz1u1e+bW9YeNfGDqZc60VE/Q8W29Fy3bI/3D5f/t9uRHNjJOlHMIO/7mnkMUPg9h5/BYX9/ok1au/MqqfH4b+/+9rjuqM5vd64/Z7F639/Ye+eD48T/aKZnsDjq+7Wtr18742YYNH+913VGNjFNO2Nsh7PhRyCHs+MohGvGjkEPY8ZVDNOIrh2jEj0IOYcdXDtGIH5UcWtB76T9r7A9qeMxcTE+zs7z7Z2AanoL6LvQI5tLXzoDqG07/dqm1AdVb8HFr+RHM5dTVfLN6EY4uuX95DY9ZjpmtufDYnQEHNums0rBt0jINgO7aNfG+c9//k0LjnzNm7DPOzH3vYNI2K1jy5rj8nKdOYPWqGaxZs0f6tBMvaV+w/POBJtBNrPvEzs8XGhpi26ZeTRw7YrazbXK1+0ZmTObO9e90F2V2ct/KTN1w9IJPjlywy08DjV+w2k10nbzg9OzDXUcBDimnm7Q7rCGxoppD2PGVQzQ+DyHn0OW68XevXPmlwknM1onEy0elUg9vF4+vXpjLjbmnt/eQxfn8rkvz+R2PWrnys29MnFjLAbtuK103cdLy5WfPTqePA5yU43Sn3ea9F8PeDmHHj0IOYcdXDtGIH4Ucwo6vHKIRXzlEI34Ucgg7vnKIRvyo5NCiTrCW3wDm1Pi4f1BsAByOmbTjjkHmkgMuAr5L9Utu61E62UWQPQCHA++y7l8ZYN2XA3djJv9oB96u8XGLrOUEpmflupIyDdsmLdMAmH7Pu09j/fodAWI773Jj21Ov/MJe72azt/fts/OX3YULTnRXrti375xTjmr7yz/uDSp+90feONxdntsGIHHw8HuHPzT1ent9R55HN8ya+8Hc0z0H5TvTu/Z+dsk7gr4E012ZTa6f/tpX3OW5KQCJQ4bfE9u97Y30b1Z9JMg4Uc4h7PjKwYjC5yHsHD64atVRK/P5bQH2T6XunD1hwjX2+pzrPjRz2bJzn89kDluUze5+3po1BwR9Oe7yfD45fenSb6/M57cDODCVumN6ItH5h+7u84KM4yfs7RB2/CjkEHZ85RCN+FHIIez4yiEa8ZVDNOJHIYew4yuHaMSPSg41SlAcuy0IfwPOHOBj48A7rPv31fHY+0vuv5PBNwAuB74zyDrKKW3sCrIH4BFAh3X/lgDrfsy71WustZwB1pcp07Bt0jKTgOSfnXM6AG3ty1J3PnxF6XonkXDbbr715yQS6wHyjz50RpDxs3duOALAGRFbNfz2Hf66SYEY7vB/bvcX2pxugPRNa48IMj4Ai3Nt7vLcFNqc7ravjv/V8Aen3uAkY0G2vkc/h7DjKwcgGp+HsHO4t7f3GIDhjrPy7vHjrytdH3cc99bx4/+UcpwugH92dx8TZHyAN7PZ9pX5/HYpx+m6cOTInz06YcK1yVhz34thb4ew40chh7DjK4doxI9CDmHHVw7RiK8cohE/CjmEHV85RCN+VHJoQdvTv/HqhToe+xZm8omC6UEk1CCN7AG4p7X8FqYRE8xlt4djZjS+EbjX+/tdzAQhjRLDTJpS8ASbXv4LDdwmLdEAmP3+xTvR0z0FILbzLrc5Y8dly5Vzdpze62y7ven1t2b1Hrm//dlvWuWaZa5eM8Vdk9sKIH7Q8McY4ZT9gu1MTvbF92l/EsB9KzMt+2DXlkHE7xdjUnL+8Dt2uLj9exOfC7ruVskh7Pibew5R+DyEncPvu7q2W+u6EwH2T6UeGumUj79NLNa3VyIxG2BJPr/TvX19Y8uVG4ytYrG5t4wb9/Ufjx5d6yUBgQl7O4QdPwo5hB1fOUQjfhRyCDu+cohGfOUQjfhRyCHs+MohGvGjkkMdXKArwNtgxt3bruT+orKlKrPL7zCIPBqtXGPXOOCLwD3AYqAXc5nsPOB6zEQebTXUvYe1/Jr3dxZmkpT7MDManwkc6f39OvAoZqzAfep+JtWdCGxr3b+mQrmGbZOWaADM3X/3jI139tvfb8YWnN33LKx3sjf8ZYZf2Vplblu3U2E5fsTwV/3KJg7YuN7J3rBuxyDiFzjT2rpHvbbLjxKHD18VZL2tlEPY8ZVDND4PYedwe2/vLoXlw1Kpl/3KzmprK6x3bujq2sWvbL12Tia7X5806bvHtLWtDLLeWoW9HcKOH4Ucwo6vHKIRPwo5hB1fOUQjvnKIRvwo5BB2fOUQjfhRyaEOOWBEgLcPDCKX8SX3V9T5+OXWcmldUVLa2PVxzHiHP8TM3jsJ07A1EpiKmX33j8B84PQqdduTx64GTsNMwrFzlce90yv3rirl6jEKsIexW4B5HuU0bJu0RAOgu3TJxhbrxJHHvuFXNr7nPsX1bywMpKU7Pz89eWP8Q4cv9Y0/c9jG9blX+yb7la3bMPKVejo1Tdg5hB1fOUTi8xB2Dp3Z7MbZy45ob1/iV3bfZHLj+ldz/WcrHqzhjpOr9CtqM4S9HcKOH4Ucwo6vHKIRPwo5hB1fOUQjvnKIRvwo5BB2fOUQjfhRyaFFjSi5v6HOx9vlRw4yl0Yqbey6gP6XPueAvjKPm4wZY/FLPnWPspbHAn8Akphefmd7daQwE3mcBdjjTg4D/gIE0YEk6dW1vXc/D5xL+ecFDdwmLdEASNcG02LtOLnYcSf69niKHXbkxtlX3HVrtgoivLs6N8ZUTj6x3zDfARgTszo25ucuywR+CbBI2KLweQg7h9WuOwbAgdwBqZTvmAwHJJMbe+etyOfDuJShYcLeDmHHj0IOYcdXDtGIH4Ucwo6vHKIRXzlEI34Ucgg7vnKIRvyo5NCiUiX3652cJO1TV5SMLvO/ZzENZNticm/HXAJ7NmbcPNsPgJMr1G03fB6GaVj7IXAwcAOwBLNd3wb+iun590vrMaOAH9X+VMpqwzT+2b0Jv4T/pC4N2yYt0QDopvvMCxeL9zrt7Xm/ss7OuxSvs+/rC6Sl2+1xhwOQcPpIlh2ksRh/6+TGlli3Oz88iPgiURKFz0PYOfTk8yNMeKcv6Ti+8ackk72F5W7XHVL7hLC3Q9jxo5BD2PGVQzTiRyGHsOMrh2jEVw7RiB+FHMKOrxyiET8qOQwR8QaXD9Nb3u1N4EJgJqa33iJMbzmAlZhGuwOBy6zHOsBPMTM4lxpWcv8+4MuUn3gD7/+fp3+D2skMfAzFccBd9L8s9xLM5CPVNGSbtEQDILm8abGOOZW6SG7kjB2XxXHMBsnlgmnpzpoN5ySc6q3uI5wcjveCZEkGEl8kSqLweQg5h5y3M03U8EvcSMfJOd5OOsvQ2ieEvR3Cjh+FHMKOrxyiET8KOYQdXzlEI75yiEb8KOQQdnzlEI34UcmhRaVL7neULVWZ3fhVtR0lRN8DtvFuUzANV34NxXng/9G/B9004IQyZUufdy29+fJeDgUx4LgaHldqb+Ap4FDvvovJ+xs1PLZh26Q1GgAdBjbG1UAft2k9vr0OK4oN8HEiURaFz0PIOTgMrJ6BPi6qwt4OYcePQg5hx1cO0YgfhRzCjq8cohFfOUQjfhRyCDu+cohG/Kjk0KJKhzkaTAOg76XXLcjF9KSzlWsALB038eEa67+75P6sGh9XcBZmJuHCTM69mEt1f15nPfWoaZu0RAOgk0yZy3rzbtVpjd1lS5O4rnleybbuQOK3Ob0Abtat/ivEWjeBa7ar0xYbzLTfIpEUhc9D2Dm0xWK9UNsvk2tcN+F6+9p2GFL7hLC3Q9jxo5BD2PGVQzTiRyGHsOMrh2jEVw7RiB+FHMKOrxyiET8qObSoZSX3J9b5eHvyw9K6hoIHMA1rBeVm9rUbUdPA+hrrXkX/WZcn1Pg4B/gOcD3FBtjFmPEHb6yxjsGouk1aogGQZNI05OVz7W5vr2/O7rPPFGfLSSUDaQDEa2wg67aRwfErmp3fW2yZb3d6fYqKtKYofB5CzqHN27FmXbct47q+8V/PZDb++tbuDK19QtjbIez4Ucgh7PjKIRrxo5BD2PGVQzTiK4doxI9CDmHHVw7RiB+VHOoQx/QaC+r2p0HksqDkfj3j0MUp9j4DmDuIPKIqCyy37pebNOZ1azlJfeMidlnLpWMJlpMErgO+BRu/nz4O7Memk3Q0StVt0hINgM6oUYsBcN14/va/+84GlH/k/kkbHzd27FtBxI9NSJjW3zyx7Ozu0imZ+3Fn94zbGH/rxHK/siKtKAqfh7BzGBeLLQNwIf5wOj3Gr+xj6fT4wvJk73FDRdjbIez4Ucgh7PjKIRrxo5BD2PGVQzTiK4doxI9CDmHHVw7RiB+VHOrgAMMDvNV72a7tTfpfurtHHY+dTv8el88NIo8osxvmSi/3BXjJWnYwM+jWyp5QdnWVsm3ATZjLfAtuBA7HzDTcTL7bpCUaAJmy3bzCYvauO6b6Fc09N6e4fsddA2npju3atrEhMfvvDZP9ymaf7N66sByfMezNIOKLREkUPg9h57BzIrGosHxPb+82fmWfTKenFJb3SqXeCCJ+VIS9HcKOH4Ucwo6vHKIRPwo5hB1fOUQjvnKIRvwo5BB2fOUQjfhRyaFFuZhx5AoOB/8rnyxHl9x/KIiEImZL71awtEyZJ0vuv7PGuseV1O33HTKG6el5kvW/H2EaA5vdi7XqNmmJBsDEiSc/v/HO00/s51fWfeVls95xcskPnvuSX9ma4588cmPX0dx9G3bzK5t7omc6ADHybf+1xTy/siKtKAqfh7BzOHXYsNcKy/en07v7lX3KW+9A7r0dHa/7lW01YW+HsONHIYew4yuHaMSPQg5hx1cO0YivHKIRPwo5hB1fOUQjflRyqEPWhA/sduYg8/mXtTwOOKLGx73HWl5M8y5BrddewN+BpzHjFJ5fx2NPoH+D6CNlytyHGc+v4AM11n1Myf1Hfcr+ADPpR8GlwJfwn7XXT0O3SUs0AMY/+uk3GTnqVYD83Lnvcue+3l6uXO5fN491ly45FMAZP+GJ2KFHlM6cMyDJd49a5myVXAiQfbz7QHdpNlWuXPbx7tG5V3r3AYhNTb3k7J7qKldOpJVF4fMQdg6ntbcvHR+LLQB4Op0+ZHE+Xzb+I319W7yeze4HsH0i8cKMVKpc1/SWFfZ2CDt+FHIIO75yiEb8KOQQdnzlEI34yiEa8aOQQ9jxlUM04kclhxZ2PWDPa/C1Gh5zBHCgdf+PDLwxqtEWY3rOzQTGA58EEjU8LgV82brvAreUKZcFbrDuHwccWqXuGPB5634vcE+FsscCX7Du/wr4SpX6q2noNmmJBkCA2MGHXQ9ANjO675RjLiidDMRdtjSZ+dx5XyWfTwI4p5x+XZDxU2eONlNB97ojuk7ofN8mEw+sdRM971v0YXLmxUl+fMu7gowvEiVR+DyEncNp7e13APS57sjjly//cOmgxmtcN/H+1as/lvN22Od2dNwWZPyoCHs7hB0/CjmEHV85RCN+FHIIO75yiEZ85RCN+FHIIez4yiEa8aOSQ4taA/zaun8U8FWf8pOBq63764Ff+JTfBviwdZs1gBwHYwVm7LyC6Zjn6zdZRwr4A/3HRLwJeK18cS6h/4zS1+E/ocp36b8d/gysLFNumJdH4b38KPA5n3pr1dBtUktLYiS0Xf/Pu3t3GH+Su3LFTHfRwnf17jxpSmzGvrcxcesVvLlwUv65OaewYf1UAGfK9re3/eSKZ4KM3375pCcyt6w7OL8wvWvumZ4D1+3wylbJY0Y84mybWpOf1zsue+eGQ90Vua0B4vt0PNr+xfGvBhkfIP3jlTvnFvTZ13STn9O78c2be7Jnx55PL+73xkgcOXxh8ozRgQ08GXYOYcdXDkYUPg9h5/DbLbd89PZ0+rBF2exuL2Qyh2y7ZMmko9rbH9wmHl81L5cb/+/e3iNX5fNTAPZKJh/6+ujRLwcZH+B769fvuiCT6Tcx0nOZzI6F5Tl9fbt8bNWqfu+DI9vaFvzX8OGLg8oh7O0Qdvwo5BB2fOUQjfhRyCHs+MohGvGVQzTiRyGHsOMrh2jEj0oOLexizKXEhVl9v4e5TPTnwBwgA0wATvPKTrAe+1XMZaSV7I3pIVhwGZUvFx5F5Q5k8ZLlSpM09tG/Ma6Q47uAEd79j2J6v/0QuBfTIAbmeR2Lubx2T+vxK4ALK8QDM37fdzCX6oJpJH0a+DqmcW8t5nnNwvTeO8V67HIq97r8DLC1df/r9J84pFa9bDpWYMO2Scs0AAKkbr7za32nHH0pq1fPYM2aPfIP3LvJTDjO5K3va3vwyR82Iv6I+6Zesf7Qeee7b2Z2ct/KTE1ftXqTCUniu7c/PeLBaYOZ7ruivv9deXT+tb69K63Pzu46gtld/cYFyC/N/jXIhqewcwg7vnIoCvvzEIUc7hs79ueHLl9+4eJ8fpel+fyO13Z371haZpdE4omHJ0y4shHx/9jV9a652ezMSuufzGSOfjKT6TcI8Nv5/HVBNgBC+Nsh7PhRyCHs+MohGvGjkEPY8ZVDNOIrh2jEj0IOYcdXDtGIH5UcWtQ64HjMeHYTvf+d491cTKNauSHSfoi5JDUorwFb1VBuPyrPmvsrTMOZbR5mDL2bKM6aPBP4i7fch+llV+7S8RXAqcDCKjldiun19wnv/hjgCu+2BjNjc7LkMeu9vN6uUOfnS+7fVyWHSi4BvlHyv4Ztk5ZqAIztPbOrfd6y89PnnHKsO+epY921q3cmmx1BMrnW2XLsS86hR97a9vtr/AZoHBRnh2TvqIW7/rjn02/tn71rw/75xZltSbvDnI7YBmdKcn7yjC0eaf/uhOer1yTS+qLweQg7h2nJZM8bkyZd8vHVq9/573T6oKW53PZp1x3W7jjrJ8fjc0/v6Hjw0tGjA+2NHEVhb4ew40chh7DjK4doxI9CDmHHVw7RiK8cohE/CjmEHV85RCN+VHJoYa9gxq77X+Aw6/8Omzb+rQG+CVzenNQCcQdm3MLfsellyG0VHvMvTGNirbNFfxJ4CdMTcJj1/3K9FZ8GzgWe86lvVI1xB6oh26SlGgABnETCbfvrrXcCd4aSQAy349dbzwZmNzv0yFd3vqLZMaOWQ9jxlUOJED8PUckh7jjulVtu+QjlZ55qqNcnTvxZs2NWEuZ2iEL8KOQQdnzlEI34Ucgh7PjKIRrxlUM04kchh7DjK4doxI9KDi3sdeBwzEQWpwOHAJMwPcSWYRoJbwOuoXiJaCt5Dtgf87zOBA4AtgdGA3nMc1oA3A/8Dai3k4cL/BK4EdN78hRMr8CJmEtwlwKPATdjGtKiMHFK4Nuk5RoARUREREREREQ2Q0F2hroFSiZSrGxi9SKBeMi7NcpSzPiJPx9kPSOqFwlMYNukZWYBFhERERERERERkfqpAVBERERERERERGQIUwOgiIiIiIiIiIjIEKYGQBERERERERERkSFMDYAiIiIiIiIiIiJDmBoARUREREREREREhjA1AIqIiIiIiIiIiAxhagAUEREREREREREZwtQAKCIiIiIiIiIiMoSpAVBERERERERERGQIS4SdAED2+mv2yt5319pmxXMz6WS/f+RJZm9bP71Z8QHct7KjNoZflNk+e9v6jmbGByBHIWbTn38pd21uchg5uBlGeovxELeBA0CPOyGUHPrcMYU8QtwG5seILFs0PYfi89/o6q6uWU3NAXAhBZCDkWHEX5rPDyssz8/lpl/d1TXKr3wjZGEsgAvxMLaBJw6QgS3DyGFhNju5sPxgOr3P69lsd7NzyLvuKAAXkiG+Dg5At+tODCOH1fn81MLydd3d74iD2+wcXBgGkIeOEF8HAFbn89uFkUOP627jLTohbgOzb3bdUPbNK/P59sLyG7ncLld3dbX7lW+ELIz3FmOb67751Wx2QmH5yXR6xopcrmnfWwryrjvaWwx939zruluFkcOKfH5aYfmmnp79OiDX7BwK+2YX2sLeN6/L56eEkUN3Pl/YN4dyzpx23ZHVS4lIOU4IMQ8CHg4hblmxaSniezX9XAo37ZK9dT0AicNH4IxpfmfM3Et95F/rwxkWI3HciKbHB8j8Yx3kIf6OYcS2aX57dH5emtzzvZBySJ4YzrEke8cG3J48sd3aiO/S1vT4+UUZck/1QNwheXJI2+DfXbhrc8S2TxHfp7mfx43PH2hzHI5qa/5rAHBvXx99rsvURIJdE83/LPS5Lvf29QFwcFsbo5zmHx6ezWRYnMsx0nE4JKTX4a7eXrLArokEU0N4HVbl88xOpwE4qq2NthBeh8fTaVbm84yNxdg/lWp6fIA7envJA3slk2wTjzc9/qJcjhcyGQDe1d4eysnSQ319rHddJsfj7J1MVn9AA9zW2wvAO1Ipxseaf57yWjbL3GyWpONwTEj7hPv6+uhxXbaPx9kthNch47rc7e2bD0qlGB3C6/B8JsObuRwjHIdDQ3od7u7rI+O67JJIMC2EffNa1+UR73U4oq2NjhD2zU+m0yzP59kyFuOAkPfNeyaTTAlh37w4l+NZb998XHs7zc8AHu7rY53rMikeZ5+Q9837plJsFcI+YV42y6vZLAng2Pbmf48GeDqT4e3cxvbfy4DPh5KISIvZ7BsARURERERERKQlqQFQpEYaA1BERERERERERGQIUwOgiIiIiIiIiIjIEBbGJcAJIOyBO4cD9qANaaDpA62LSGStDjsBERERERERERERERERERERERERERERERERERHZnIVxCXAQDgFOATqAF4BrgA1NjD8K+CCwG9AF/A2Y3cT4IlK0NfAhYDtgCfAnYF4T4zvAu4BjgTjwBHA9ZmgBERERERExHOAYzLlzEngauA7oDTMpEYmmBHA14JbcOoEZTcphf+CtMjn8Bk2qItJs78U0wtufxTTw6SbFHwncwab7g+cwDZIiIiIiImI67/yTTc+bXwZ2DDEvEYmo77DpDqNwW4jZqTTSaGCpTw5fbHB8ESmagWnsK/dZzANHNiGHqyrEdzE9AVu1l7WIiIiISJCuoPJ58wuoM42IWGLACirvNFzg7Abn8NEq8Rc2OL6IFP0a/8/jTQ2OP5bKDZCF2wENzkFEREREJOpGAN34nzcfFVp2IpuJVmpln4D5wu1ntwbnML3K+m0xlwSKSONV+zw2en+wI2bskjBzEBERERGJuh2ofrWezptFGqyVGgDXYi7r87OqwTlUq78XMx6ZiDTe6irrVzY4fi37m0bvk0REREREok7nzSJSt9uo3GU4B0xtcPw9MY2QlXK4ocHxRaToQ/hfRvClJuTwok/8dahHsIiIiIgImPGxK50391D9aj8R2czsROVxAL/WpBy+XyH+EmBKk3IQEYgDt1P+8/g40N6EHN5J+fFMcsAHmhBfRERERKQVzATWU37yvk+EmJeIRNg04G+Y3jUZ4Hngg03O4ePAS0AWc2nyX1Djn0gYUsB3MRPwFBrif44ZaLhZ9gXuwDQE9gGzgRObGF9EREREpBXsCdyCGTYrDTwJnB5qRiIiIiIiIiIiIiIiIiIiIiIiIiIiIiIiIiIiIiIiIiIiIiIiIiIiIiIiIiIiIiIiIiIiIiIiIiIiIiIiIiIiIiIiIiIiIiIiIiIiEiXbAG8DLnC59f8N3v/uGUTdvV4ddwyijjDqrsdTXh5vhpyH7fOYnHqAmSHnIiIiIiISiK2Bi4HHgTVAGlgOPAR8DRhbR10TgTsxJ80ucE6gmRpB5JsEzgPuxnxpS3t/bwc+BMQCz1qkdYzAfPm9H1gBZIBVwGzgO8CkGuoIcr/SyDyDqEM2byngScwxbzbm+FKgBsDaRLEBEOAGTF4LCWafJSIiEhX6PiyyGXo/sJ5ig12520rgmBrqehfFHhCNagAMIt+JwAtV6ngUGB1w7iKt4EBgEf6fjzXAST51BLlfaWSeQdQh8l2KPcV2KVkXRAPg1cBfgK9UWP9p4KIG1d0sUW0AHEvxvOa6kHMREREJir4Pi2yGTgTymA94Hrge+ARwOnAhpudOYQfQxaZfbAragJ9Zda22HhdkA2AQ+SaAZ61y9wH/DRzr/X3AWjeYL2wirWhXYC3Fz8DjmN5xpwAfw3wmCut6gOllOipL+AAADD1JREFU6ghqv9LoPIOoQ2RPTK9RF/h2mfVBNAD6acf8Yu82qP5miWoDIJgfNAr7Av0YICIirU7fh0U2Q3FgAeaDncX03isVA35LcQfwxzJl2oFnrDI/BT5g3Q+qATCofD9rrf95mfUOcCXB5y/SCu6g+N7/PubzUOp7Vpk/lawL6nPa6DyDqkPkdsz7YxnmcvJSjW4APITie7SVRbkB0AGew+T3H8x+TkREpFXp+7DIZugIih/qK3zKjQC6qXxiPs5btwo42fvfOQS/wwgq31e9dW/Qf5wm23DM83GBhweYr0irmUyx594TVB73I4lp7HAxY+bZgvqcNjrPIOoQmUXx/f71CmUa3QD4ZdQA2Axnoy9CIiIyNOj7sEhENHOgzTzwZ+AuzPg/lWwAXvGWKw2GPxvYG/hnYNltKoh89wZ29pavwly2VU6XFeOdwJQ6cxVpRVthJuh4HfNZy1colwGe9pbHAsOsdUHuVxqZZxB1iJzv/c0Av69SttBAtxvwv8B8zKXlKzET0HyI8r1QofxEHT/w/veDkhiuV75WfpOAFBovf+ndn+jFmwf0eeufxTR+dlSJ8wHM81yJafyfC/wKmFZHriOACyhO2JMGlmK+mFxA+R6YU4B13vN4mcpfdADu9crlgINL1t2EGQsQzJiLIiIirUjfh0WkqsLshmvLrEuw6Ql1I3oA1qNSvnZ35yOr1PEeq+x7g05QpMXdRfHz0TbAOvz2K0EJIs8g6pChpwNzcuxiLgOuZINV5hjrfrnb9ZT/IdCvAbDcLagGwBXeuj9gGi7f8on5MOZ8oJQDXOvzuDXAoRT3B5V6AO7rratUj4uZqXefMo/9hFXmqxXqt89byl0OBXC5VWbbCmVERESiTN+HRcTXZIoDjN9a42PCbAD0y9ced2xylXpmWGUvCThHkVYWB5ZQHA9rIAayX6lXEHkGUYcMTSdSPEZ80qdcocHvfsx7qRM4D9NQNQP4FLDcquuzZeoo10gXwzS4/cN6bMK71TNGnV8D4FJv3c2Y9/+bmN5vMzCTn3yE/o2C55ap43xr/VzMJDsTMD1/TwWex1yC9BKVGwC3w/QcdDE9D78LzMT0yt0N+AamN6WL6aVXenx3KPbu62LTxrsRFBsXX6dyT9/jrOdyfoUyIiIiUabvwyJS0QTM9N8uZkD/d9b4uLAaAKvle4u3LkP1y63HUHwOGvxfpOi/KH42vjyAxw90v1KvweYZVB0yNF1K8b2xm085u8dfJzC+TJm9KM4kvJhNj09+jXR/t+ofCL+6C41iWUzuE8uUOdiK/6+SdXGKjYgbMA15pUZjGgYLdZRrAPybty4PHF/heRxv1XFlmfU7UHwt/l6y7sdW/YdWqB9MQ2HOK3ujTzkREZGo0vdhEdnoTExPhm9iLtlZT/ESvTPrqKdZDYD15ltodFhTQ91Jis/hliCSFRkCtsH0sClcbje8hscEtV+px0DybEQdMnTdg3lvrMf/BNpuAPyIT7nrrXIHlKwLuwHQxUyCUUmhl+z8kv8fZj3+Nz6P/7BVrrQBcDuKjW5+44pCcWbvbsr34vuMFedE73+7U2x8/UWV+qHYU3FBDWVFRESiRt+HRWSjZ+k/ns5aTHffsXXW06wGwHrzfdort7TG+rNe+UbN3ijSSiYCL1C8jG6/Gh8X1H6lVgPNM+g6ZGhbiHl/PFOlXKEBMI/5Jb2Sj1P8jJROMhF2A2AvkPKpo/BlYlXJ/79k5ebX2D/WKlfaAPjf1rrTfeoA80NDoewxZdY7wAPe+nmYcRzvt+7XMsnPzV75HP7bREREJIr0fVgkQpo5C3AtRmEGzL4J/8tioqJavrkB1jvQx4kMFbsAjwF7YE4E3gc8NcC6GrlfCSLPIJ+rDE0xiuPmLKrxMYuA1T7r51rL9cyM2wzzMGN2VtLj/S1tENuppI5KVlKcYbeUPalHL7C9z83evtPL1OVixinsAaZixgUs9FL8CKbnYDULvb8xYOsayouIiESJvg+LREjYDYB7ezmM9Za/BCzDfEm/D/hAeKmVVW++672/7TXUnaI4kPq6QWcq0roOAh7BfMHuxfTCKR1Dy0+z9iuDzTOoOmToG0Fxxlu/Rj3bkirr7XpG151RY62vsr5S70O7x2O17bSywv/tnsK3Yi69rXS7ziq7VYX65gJf95YP9P5egekZWAv7eWxR42NERESiQt+HRSIk7AZAKF7G8xzwI8wX9oWY3H5D+QHMw1RPvoUd3nCqb2v7xL7alx+RoeocTC+ZsZjP2XFsOtB/LRq9Xwkiz6Ceqwx9HdZyT8VS/VXrXdZnLbfVl05k2dvJrweh3/qBjr05wmfdv+jfaHlnHfXar2MtlwyLiIhEib4Pi0RIFBoASy2lOO33MOCsEHOphV++hUG7E1Sf9nwHa9nv0iWRoeoC4M+Yxoj5mNl6Hwyo7iD3K0Hk2cjnKgLVx4uzG/1qbVSMOrtRs9rzr9SYtsFanoYZx6+W2+cq1OcAv/P+FvwSGFklPxERkaFA34dFIiSMBsBauv++YC3v3KhEajSYfJ+3lveoUsee1vJzNcQUGUo+D/wE8yV5DuZSuVfreHyz9iuDzTOoOmTzYjfQdVQs1V+1SW+2tJZrvaw46tZay34ToABMqvD/ZdZyEFcgfBw4wlu+ANPzcDtMz+Ra2A2VtYwZKCIiEiX6PiwSIc1sALwOM/13NzChSln7UprehmXkL4h8H7aWj65SR2F9FjMhgMjm4nTgp97yo8Dh9P8S7qeZ+5XB5BlkHbL52YA5NkD1hq2Cafhf2mtPmPHaQJKKILu3wI4+5aZSuQfes9byPhXK1Gob4Ife8g3Az4BLvfsfB46soQ779V4zyHxERESaTd+HRSKkmQ2ASzADjTuYsa/8HGMth9UzJoh8X8dMfQ7wISpfcjQJONVbvpPKg5OLDDVTgD9iPmcvASdR35gfzdqvDDbPoOqQzVMeWOwtT6nxMUngeJ/1R1nLTwwkKfpf1hoFT1vLR1UsBWf4rLuX4syD760S70Dg05hJfMr5LWYW8rWYnr8A38NMDOIAV+I/diCY3oJgxhB8q0pZERGRqNH3YZHN1N6YLzEu0AXMrFDuUExvHhdz2VOlmfVs53jlXao3AtQqqHzfa+V2FZs2uqaA260yhw86c5HW8Q+KnzG/HjuVNHK/EmSeQdUhm697Me+fdfj/eLeB4vFkDuUvj98NyHhlyvX+6/XW3VFm3Z+t+quN5VOOX91veutmV6njHq/chpL/t2Ea21xM4/rUMo+dAiyn+BzeLFPmZmv9hyvkMBYzrICLaZwt7W35QauOT5WsO8Za96sK9Re85JXrrFJOREQkqvR9WCQiEk2M9SxwOXA+puX/UcwXiQcxl7WMxVwO8x4rr0uAt0vqOYxNe0AcYC0fzKbP62ng5ZDy/TNwrlf2Q5ixx/6I+SV/B+ATFMc7uAq4v848RVrVvsDJ3vIczOf4gMrFN3oc82siBPc5bXSeQdQhm7enMO/lkcCuwH8qlIt7fx/DHG/uA/4H81lxgEMw488VPg8X15nHQmv5x8CvMb3Y5lDf56oR+jCX2F+EyekB4FuYbZfATLbzNUwj6iuY84VyPocZt280ppfefsC1mOP2WK+eCykOVv51+k9AshXmcl8wn+HflNR/N2Y/9V7gk8CNlD/2D8e81gBPVshVREQk6vR9WGQzFQcuo9i6X+mWozhjZ6m/1/D40tsXQswXzCVAD1ap4wbMJVsim4svU/9n2QXOK6knqM9pI/MM6rnK5uskantfFHr2XQucQLHna7nbFRXq8OultwfFXrf2rVJjWj11D7YHIJjj6B1l8ivcVmMa8P7p3V9SIcZMK59KtzTms13qr976DDCjQv1bebm4mLELh5cpc6wV67MV6hEREWkF+j4sshmbgbns5XnMCXDW+zsH+Dmwu89jm9kAGES+BQ7wAcwXk2WYLw6LgZswX+xENjdfIdhGsSA+p43KM+jnKpufDszl4y5wW4UycYrvncKlpXtifmVfgGl8W4m5nPgsn1h+jXRgJrN5wSu3BtM7bZcan0ejGwDBbIdPYnoEr8Fc9j8P01uxcPn91V4d/3/4LtbgYmBgKGSArER4xQAZ0PvEAClj+hmw3yYewoCIA0I3/aYjqZ2MRX4ykrw8AbNGwSgYBaNgFIyCwQ5G+8OjYBQMMAAAs6a6hfUImOMAAAAASUVORK5CYII=;" parent="1" vertex="1">
                    <mxGeometry x="30" y="381.36" width="240" height="30.56" as="geometry"/>
                </mxCell>
                <mxCell id="75" style="edgeStyle=orthogonalEdgeStyle;rounded=0;orthogonalLoop=1;jettySize=auto;html=1;entryX=0.5;entryY=1;entryDx=0;entryDy=0;" parent="1" source="28" target="34" edge="1">
                    <mxGeometry relative="1" as="geometry"/>
                </mxCell>
                <mxCell id="28" value="" style="shape=image;verticalLabelPosition=bottom;labelBackgroundColor=#ffffff;verticalAlign=top;aspect=fixed;imageAspect=0;image=data:image/png,iVBORw0KGgoAAAANSUhEUgAAAusAAACvCAIAAADLzQc5AAAACXBIWXMAAA7EAAAOxAGVKw4bAAAgAElEQVR4nO3dd0BTV/s48BP2EhmJjEhYooCi4kIZQrXiRMRV0SpQR51Yq4It1rdFqOKqValbBEVUtOLCLcs9wIJSFJANgbA3ISS/P877u9+8IQmQBELw+fx1uffcc09CxpNzzzkPicPhIAAAAAAAmSIn7QYAAAAAAHQZRDAAAAAAkD0QwQAAAABA9kAEAwAAAADZAxEMAAAAAGQPRDAAAAAAkD0QwQAAAABA9kAEAwAAAADZAxEMAAAAAGQPRDAAAAAAkD0QwQAAAABA9kAEAwAAAADZAxEMAAAAAGQPRDAAAAAAkD0QwQAAAABA9kAEAwAAAADZAxEMAAAAAGQPRDAAAAAAkD0QwQDQLdLS0pYvXz59+vTU1FRptwUAAPogiGAAkDAmk7l9+3ZbW9szZ87cvXs3Oztb2i0CAIA+SEHaDQCgT0lJSfHy8kpLS8N/Ll++fNq0adJtEgAA9EkQwQAgMREREcuXL2exWAghPT298PDwqVOnSrtRAADQN0EEA4Bk/Pnnn5s2beJwOAih4cOH37x5k0ajSbtRAADQZ0EEA4AE7Nmzx9/fH2+PGjXq0aNHWlpa0m0SAAD0bST8kxEAILK7d+/OnDmTzWYjhExNTV+/fq2rqyvtRgEAQB8HEQwAYsnLyxs1alRlZSVCSElJ6fnz56NGjZJ2owAAoO+D2dQAiGXTpk04fEEIrVu3DsIXAADoGdAHA4DoEhMTnZ2d8Xb//v2zs7Ph/hEAAPQM6IMBQHRBQUHE9tatWyF8AQCAHgN9MACIKDc318zMjHgH5eXlwfRpAADoMdAHA4CIoqOjifBlzJgxEL4AAEBPgggGABE9fvyY2IbUAQAA0MMgggFARCkpKcS2hYWFFFsCAABfIIhgABBFS0tLaWkp8aeJiYn02gIAAF8iyCoAgCiam5u5/9TU1JRWS8TX0tJSUVFRXl7OZrNHjhwp7eYAAECnQB8MABKgoCB7Pwb+/PNPU1PTfv36qaioUKnUESNGbNq0Scw6q6uri4uLJdI8SWltbW1ra5N2KwCQJTy/0HpMVydHQwQDgASQSCRpN6HLzM3Np06d6ujoqKSkJJEK9+zZo6urS6VSly1bJt1lGjgczsOHD+fPnz9w4EAymayhoWFubr558+a0tDQptgqA3qypqSkiIsLFxYVMJuvr66upqY0aNWrPnj10Ol38yuvr6ykUyoIFCyIjI6urq3mOstns1NTUwMBAMzOzJ0+edKFeDgCg63jehO/fv5d2i0R3+vRp/ChcXFxErqSoqEhO7v9+ET1+/FiCLeyS6upqV1dXEom0cuXKf//9l8PhMJnM+/fvT5gwQV5ePigoqK2tTVptkyIGg+Hj4/P582e+R5OSktauXctms3u4VUBMKSkpK1asCA8PF7OeDx8+mJmZaWpq7ty5k8FgcDic+vr6kydP0mg0XV3d69evi1k/dxikoKBgbm7u4ODg4eExY8aMcePG9evXDx+aM2dOl16EEMEAIIq+FMF8+PBB/Ajm33//5X5CYmJihBQuLy8fNmxYY2OjyJcTpLCw0NLSEiF0+vRpnkNMJnPKlCkIoVmzZrFYLIlfuperrq52c3NTUVEJCAior68n9hcVFS1ZskROTm779u1fZmwnoxISEohFHNatWydOVXFxcZqamhoaGv/88w/PoYKCgoEDByKEdu/eLc4lOtOR8+233zY3N3epWohgABBFX4pgcnNzxY9gOBzOrFmzcD2Wlpbc35Ht4YnowsuIoK2tzcnJCSG0YMECvgXq6uqMjY0RQtu2bZPspWUCm80ODg6Wk5OjUqmRkZHNzc27d+/W0NDQ1ta+deuWtFsHOoXNZt+8edPe3h6/1xwdHcX83xUXF5PJZIRQaGgo3wLv3r2Tk5MjkUixsbEiX0V4BDNixIi7d++KUC1EMACIAiKY9lgs1rVr186fP19XVye85M2bN7sjgomMjMQP5PXr14LKHDx4ECGkqKiYkZEh2avLivv37+NvLA0NDYTQ6NGjc3JypN0o0LHW1tbz588PGzYMv8inT5+emJgofrUrV65ECOnq6jY1NQkqM2fOHITQoEGDWlpaRLsKjmCWL18+Z84cKysrHR0dXV1da2trLy+vK1euiNz5BxEMAKKACEYc27Zt644IZvjw4QghfX19IWU+f/6MH+yGDRske3UZkpeXN3bsWITQypUru9pvD3peU1PTX3/9ZWpqihCSl5dftGjRu3fvJFJzaWkpnke5aNEiIcXOnDmD3zVXr14V7UI4gomPjxftdEFgLhIAoKddvHhR4nX+888/qampCCE7OzshxUxNTfHiPVFRUa2trRJvhkyg0WhJSUn37t07ceKEsrKytJsDBKqtrQ0JCTExMVm7dm1xcfGqVas+fvwYFRU1YsQIidQfFRXFYrFQR+8aYpmoiIgIiVxXUiCCAQD0qPj4eKLXR4IuXbqENwwNDYWX1NPTQwiVl5fHx8dLvBmyQllZ2dXVVdqtAAKVlZX9/PPPNBpt27ZtjY2NW7ZsycnJOX78uLm5uQSv0sl3DX7LIIRiY2MbGxsl2AAxQQQDAOg5dDp92bJl3VHzixcv8AaFQhFekvg4fvXqVXe0BABx5Obmrl+/3tjYeNeuXYqKioGBgXl5eXv37jUwMJDshVpbW5OTk/G28HfNgAED8JJXra2t3PngpE72FhIFAPQMOp2elZWlrq5ubGyso6PTmVNqamoYDEZ5ebmVlVX//v15jpaXl7u7uxcUFEi8qRwOp5OfxQihAQMG4I3Xr19LvCUyoaGh4eHDhzk5OeXl5VQq1dTU1MnJSV1dvcMT6+vr79+///nz55qaGj09PRsbGycnJ+51gHq54uLi7OxsTU1NGxsbnma3tbV9+PChsbGR70u3Z7x//z4kJOTixYssFsvIyGjz5s0rV65UU1PrpsulpaW1tLTgbeHvGgUFBW1t7crKSoTQ69evHRwcuqlJXQURDADgf1RUVBw6dOjEiRMDBw7U19fPy8tLT08fP378ihUrli1bxvfravLkyenp6eXl5fieOkLoxYsX3HfWr1+/HhMTc+XKlfr6emKnk5OTvLw8dz2HDh2aMGGCCG2ura2tqanB29ra2sILa2lp4Y3CwkIRriXTSktLAwICoqKiSCTS6NGjbWxs8vPzjx07lp+f7+Pj88svvwh69hgMRkBAwLlz5wYOHDht2jRDQ8OXL19u3bpVS0srODjYx8enly9LHRcXt23btrKyMktLS7w0c0hIyJIlS/DRY8eOBQUFDRkyBCH05s2b2bNnHzt2rDMhnaQ8f/589+7dN2/e5HA4lpaWfn5+3377raKiYrdelPu3RGfeNTiCkci7hslkpqamlpaW9uvXb9CgQR3e+RUEIhgAwP95/vy5p6fn3Llz09LS8JxbhFBGRsaGDRt8fHyOHDkSHR2N50Rwc3R0NDY2TkpKysrK4lttTU0NmUxevXo1QuiPP/7AiYqcnJx4Ehp0sqenvdraWmK7wxxVRNjEfdaXIDY21tPTs7a21tvb+8CBA9xfWllZWT/88MOkSZMePHhA/N8JT548cXd3r6ys/PXXX7dv3048gb/99tvUqVOXL1+emJh45syZXtsZc/Hixd9++23Xrl14VnBLS8u0adO+/fbbmpqatWvXbtmy5fnz5ykpKRQKpampafPmzUePHiWRSD0zavXevXu7du1KSEhACI0ZM2bbtm0eHh4980xK5V2Tn58fGBh49epVfX39wYMH5+bmfvjwYfz48T/99NPMmTO7XJ1kpzYB8IXok7OpqVSqlpbW7du325dpbW2dP38+QohCoQiaydnS0oLXi0MIvXjxQtDlVFRUcBkJzqZ+//498b+Ijo4WXnjNmjW45IABAyTVgN7vypUr+Ftq9erV7Y/m5uYuXLhQXl5+xowZPIeSkpJUVVURQn5+fu1PTE9Px9UGBgZ2S7vFdvr06ZEjR5aXl3PvvHPnDkJIU1MzNDTUxMSkrKwM71+wYEHPvDba2touX75sa2uLL4djx269YntHjhwh3jU4k4AQVlZWuOTChQtFuBaeTb1lyxZDQ8MdO3bU1tYSh16/fm1iYoIQ8vHxaW1t7VK1EMEAIIo+GcEghM6cOSOoWF1dHY1GQwiZmJhUVFTwLePm5iaVCObp06fEQ/j777+FF16/fj0uqaysLKkG9HIfP37E69eZmZnxXbhs0qRJ+DkhkUjc2R4YDAaVSkUIGRoaClrxzMvLCz+Z+fn53fUARJWXl0ehULKzs3n2Z2dnEy+YsLAwYj+O1RBCEyZMEF6zyGu7YUSo5Obm9vLlS3GqEllwcDDxJFRWVgovTKykN3XqVBGuhSMYMpn89u3b9kffv3+PPxa6Gh710k4/AEDPI5PJPj4+go5qaGhs3rwZIZSbm4uXpGuvJ4cOcOPu2e5wQAbRH97S0kKMZOzbfH198QgkX19fIoLkVlpaijc4HA73MjnBwcFFRUUIoRUrVvA9ESGEs0m0tLScOnVK4i0X06ZNm9atW2dmZsazn3jB6Orqenp6EvtXr16toKBAo9FCQ0MF1Umn062srMhk8suXL0VumI2NDX4dpqenv3v3TiqvQ9HeNcSAsy7R0NDQ0dG5du3aqFGj2h8dOnSot7c3Qujy5cvHjh3rfLUQwQAA/gv/TBeC+OEYFhZGLG7bG3A4HGK7w89iPAoHY7PZ3dWmXuPNmzf37t3D2wsXLuRbxt/fH48bXb9+PV7xDyFUVVV1/PhxvD1jxgxB9Ts7O+PnPCkpSYLNFt+nT59u375NdLlxS09PxxtTpkzhXtPvwIEDlZWVOTk5xP2d9qKjozMyMurq6ohKRPDLL798+vRpzZo1RUVF33//vamp6d69e+vq6kSuUASivWtEe8uoq6uXlZU5OjoKKjB9+nS8ERAQ0NDQ0MlqIYIBAHSWgYEBHunCYrGio6Ol3Zz/Q0wvQv/7ucwX8VmsqKhI3DXowy5fvow3TExMBK0psnTp0rKysqKiosOHDxM7792719TUhLeJmwjtUSgUnL44MzNTYo2WhMLCwlWrVunq6rY/REyknzx5Ms+hfv36CR9IO3PmTFdX14CAgG+//Vac5pmZmf3111+4R7OxsdHPz49Go23fvr2srEycajtPtHeNyFPNeSYe8pg4cSJ+2isrK8PDwztZJ0QwAIAu0NfXxxt3796Vbku4cX+qEjO6BRH/s1i2PHjwAG/g2cKCaGlp8UxqJdYs1tbWFn5/EK8mUlRUREQ8vcGkSZMOHTrE99CzZ8/whrOzc1erNTMzu3fvXlBQkERmO+vp6e3atSs/P3/37t0qKirBwcEmJibr16/vjnWrefSqd42WlhaxJk1sbGwnz4IIBgDQBcSE55ycHOm2hBv3r0kmkym8MPFhTdwu6duI78IO1/zggUfAIIRqa2sNhMrPzyeTyUZGRh1+EfYGdXV1b9++RQgZGhpaWFhIuzkIIaSpqenv75+Tk3P06FEDA4PQ0FALC4ulS5dyT7KTuN72riHuYhPxZYcgggEAdAHxC4zBYEi3Jdy4fxd2mLeF6Cf4EiIYNptNzJvrcJwTD2LMprm5eYlQDAaDwWDk5eX169dPwg+gGzx9+hT3KIjQAdOtVFRUVq9e/enTp6ioqKFDh54/f3748OGzZ8/u/Dd6l/TYu4bJZD548AAvJCgE0c9XVVXVyaHNEMEAALqA6EwWefW57qCurk58sHY4VwJP7EQI4dEbfZucnBzxzHR1oCjRq9/c3CzhZknV48eP8YaLi0tXz+UeBt5N5OXlFy1a9O7du9jYWCcnp5s3bzo4ODg7O+M1bCSI+6ah8HcNm80mfrF09V3T0tIyYcIEV1fX4cOHBwUFCSnJPVCmky85iGAAAF1QUVGBN4yMjCRbM51OxwtbiWbcuHF4o6qqqsML4Y3Ro0eLfDkZQnzlEP+7TiLWJywvL5dwm6SKiGC61AcTHh4+ePBgAwODMWPGiDOPuvOmT5+ekJDw9OlTNze3pKSkGTNmjBw58uLFi5KKomxsbIiR7MLfNdwJQ7r6rnn79i2Rs2z//v1CShJRi6qqaidH20AEAwDoAmJQhaurq2RrbmtrIwZeiGD8+PF4Iz8/X3hJIoIhgp6+jZhu09VBFVOnTsUbjY2NfSaHVGVlJc6urKenx3do85MnT86fP8+zMzIy8syZMwkJCZ8+fUpJSXFzc+v8jF8x2dvb37hxIzU1denSpR8+fPD09Bw8ePDx48fF7xhTUFAgwhHh7xriLaOgoMB3QRchuHv+hKfXxnmXEEKWlpadrBwiGABAZ5WWluJlYEgkErE2TFcRU1V5JnCyWCxx0sF4eHjgDe7lVttraGjAPze1tbW//vprkS8nQ3A6CIQQnU7vcMLzw4cPr1+/jre/+uorIo/38+fPhZ/I4XDWrVvX+1cIjIuLwyuaODk58S0QHBxcUlLCvSc7OzsgIODq1asGBgZ4HWcGg5GamtoTzf3/hg0bFhERkZWVtX79+pKSktWrV5uamoaEhIiZpWju3Ll4Q/i7hohfp06d2tVxMDiNmpaWlq2tbVhYmKBiVVVVxLKK7u7unawcIhgAwH91+LPy6tWreMPT03Po0KGiXYVIHMgz85ZOpwv/iSbcqFGjcDbslJQUId+jxEIgCxcu5Mkr2RlXr17duHEjscKKTJg4cSJxu+Ts2bPCC/v5+REpi5WUlLZv3463O1yi49atW0Tqpd6AxWL5+flZWFh4e3tzrzJ87do1vDFixIj2Z2VlZb148WLZsmXcO0NCQtauXYtft4mJiTjybp/ftAcYGxsfPnw4Ly8vICCgubl527ZtNBrt559/FnkpPG9vb3wj6cWLF0KKvXr1Cm8IWgLn5s2bvr6+7fuuEEKDBw82NTU9ePBgcnIyd756HsRoZWVlZbw+b6eIkOAAANBX8yLFxsYKKtbc3IzHqejr6xcWFvItQyz5+vz5c0H1EDc18JcBISoqytnZWdQHweFwOJcuXcI1X7t2TVCZDRs2IIQUFRUzMzO7Wj/3qvn79u0Tp6k9LDU1VU1NDSGkra1dUlIiqNjdu3epVCp3viomk2lvb48QIpFIr1+/FnRia2vrmDFjQkNDJdxuMXAPuXj16hXeWVtbi58H9L/pkAhz5szZv38/9x42m00mk0tLS/GfixcvRgg5Ojp2c/M7Vltbu3fvXhz0z5s3T+R6cKJTJSUlOp0uqIyNjQ1CyMLCgslktj967tw54qkODg5uXyAiIsLa2prvuQSiD3XLli2dbzxEMACIok9GMPPmzaNSqXy/4dhsNv5hqqmpKSRr48SJEzuMhIi8Jzy5jt3c3MT/CsQ5bmxtbZubm9sf/fTpE55RvH37dhEqxwmAMAqFIvwTubeJjo7GHSRfffUVd+5GwqdPn4yMjC5cuMCzn06nm5ubI4RMTU2Lioran8hms9euXTtx4kQ2m90tTRfJ7Nmz8X9KXV2dSES6ceNGFxcXnKA0JCSE55Q///xz3Lhx7f+txcXFeKOyshInhzp9+nR3t7+Tmpubw8LCiBBNBHV1dXhRnLVr1/ItcOHCBYSQnJzc/fv3+RYgnmqE0IgRI/iWcXFxWbx4saBXyI0bN3BaA3t7+y6lzIQIBgBR9L0IZujQoSwW68CBA4MGDXrz5g13gcLCQvwhNXjw4PT0dJ7TmUzmhQsXwsLCuBPQWFtb79+/Pzw8vP0POyaTiccPKisrp6Wl4Z3R0dEGBgbV1dViPpba2lpra2uEkLe3N8+h+vp6fONg0aJFbW1tIlT+ww8/cP/Tk5OTxWxtD7t79y5exGzcuHEpKSnE/ra2tps3b1IolB07dvA9kcFg4InHBgYGMTEx3N9DGRkZs2bNsrW1LSsr6/YH0BWBgYEIodGjRz958gTvOX36tIGBQWFhYXR0NIlEsrKyInqb6urqfvrpJxcXl9raWiF14hV+1dXV6+rquv0B9KCUlBS8kE/7fqn09HScZuHQoUOCTscJX7EFCxbwLZOZmWlubj5//vyCggKeQzdu3MC/KxwdHRkMRpda3tcimIaGhvz8/OTk5IyMDEFlWltbS0tLP3z4kJSU1JNtA31J34tgHj58iP+MjY21sbFxcXHZunWrv7//7NmzlZSUTExM/vjjD74/j6qrq+Xl5dXV1XV0dAwMDGg0mqGhoa6urrq6uoKCAlEtt8rKyiVLligqKqqpqbm7uzs7O+vr6xPRjJjq6urwfXRHR8eHDx9WV1cXFhaeO3fOyMhIXl5+z549ItdcUVExa9YsdXX1iRMn2tvb37p1SyIN7kkMBoPI3WhmZjZ//nwPDw8jI6OhQ4cKfzhsNjsyMhJnRzI2NnZ3d1+6dKm1tXX//v0DAgKampp67CF0UmNj47x58ygUypo1awICAlxcXEaNGvX582d8NCIiQldX18rKys/Pb+XKlYaGhl5eXny7prjhmyntg+M+ICsry87OjkQieXl5paSkNDQ0fPz4MSgoSE1NTVdXV1DvC1ZdXe3h4aGhoTFp0iRB95c5HE5NTc2CBQvU1NSWL19+5MiR2NjYkydPTps2DSGkqqoaEBDQpd4XjMTpKJ+TTFi/fv2NGzcYDAYxwWz16tVHjx7lLhMfH79y5cqKigr8Ow8hpKKi0quyeBBaWlqKi4tNTEw6zBcKpKWqqop7Sbf379+LPLK1F2Kz2SkpKenp6WVlZXp6ejY2NnyHPYqptLT0wYMHdDpdT0/Pzc2Ne41z8b1+/fr8+fNxcXFFRUXKyso0Gm3WrFnLli3DdxDEt2DBAm9v75kzZ0qkth7GZDKTkpI+f/5cU1NjYGAwdOjQkSNHdvLczMzMN2/elJSUqKmpmZqaOjs74xsrvVNGRsazZ88aGhrs7e1tbW25J7vV1NQ8efIkMzOTQqE4ODh0uBbRy5cv8Yz9hIQE4m5pX8Jise7cuXPhwoXk5GQ6na6jozNo0KBvvvlm4cKFEly9+vr165GRke/evSstLdXW1jY3N585c6anp6doo/j7SARz8uTJ169fZ2Rk4A5DxC+Cef/+/dGjR8vKyh48eIDXH+ydEcyjR4/mzZtXU1MzcuTIhw8f8k2sCqSOwWAQE01Rn4tgQIfs7OwOHz78hawoAxBCK1euPHXqlLm5eWZmJolEYrPZY8aMefbsWW8O4Pq8PjKbeuXKlSdOnEhMTNy0aZOgMsOGDQsNDY2Oju6mHBM8Dh06dPr0abzwAI+GhoaAgIC4uDi+J65fvx4HWO/evROUWBVIHU8iNHEWMgEyp7W1NScnB99SAV8CNpsdHR2NEPLx8cFd4w8ePFBVVYXwRbr62seukOnmBGtr6x5IP0aj0X788cdx48bxBExRUVFDhgy5evUq9y94btyrO3e4WtHs2bMTExPFby3oKp511iV1bwLIhAcPHtjY2BDzckGfl52djX9YEgs57tmzx8/PT6qNAqi3rD4kKURyyw6LibwEUCfNmTPnzZs3c+fOdXBwWLJkSUhICIPB8PX1TUpKmj9//pkzZwRFUVu2bNm6dStu5HfffSf8KomJid9//73kWw86wr1qp6GhYSdfeKBvOHHiBPf8C9DnUalUVVXVpqYmPT09hFBwcDCFQuGeRdxVe/bsuXfvHk9XrmhUVFQ8PT07/LLok/paBNOrWFhYvHjxYuXKlZGRkdeuXWtubpaTk9u/f/+PP/4o5KwtW7bY29tnZGR8/fXXwn/ZNzQ0dJiGF3QT7tXZBw8eLMWWgB6WkJCQk5MzY8YMaTcE9Bw1NbVjx459//33np6eNTU12traV69eFWemxatXr54/f869WLDIlJWVraysxK9HFkEE073U1dUvXLgwYcKEzZs36+vrX7p0ydHRscOz7O3t8TqYwj158kQSbQSiSEpKIra/+uorKbYE9CQGg+Hj43P8+HFpNwT0tGXLlk2dOvXdu3eGhoZ4WrU4rly5IpFWfeEggukJGzZssLOzMzY2xj2QkhIVFSXB2kCXcA8/ItbDBn0bm8328PD47rvvpkyZIu22ACnQ09Mj8nWD3gAimB4i8VmXNTU1RIoy0MMePHhApFG1srIS/wcZkAlycnK///57n1wLBABZ1NfmIn0h2travvnmGzHzqgORcSeN+/nnn6XYEtDDIHwBoPeQQh/MP//88+bNm4KCAiUlpYEDB3711VdGRkYi1FNaWlpQUNDU1ESj0YyNjSXeTkJdXd2jR49ycnIqKir09fUtLS1dXFy6lESeTqc/fvy4oKCgsbHRxMTEwsLC3t5eyAoijY2NDAajvLycTCa3f2hMJtPX1/fevXsiPh6EioqKHj16VFBQ0Nraamho6ODgAKuxdd779++JJ9/CwgKnEgQAANDDeq4PhsPhnDt3bsiQIU5OTgkJCSoqKkwm88qVK+bm5k5OTp0flFpbW7tz504bGxtjY+NVq1aFhITMmjXL2to6PDxc4m0uKChYunTpgAEDgoKCSktLtbS0Pn36tGLFCj09vYCAgPr6+g5rSElJcXV1pVKpP/zww5MnT6qrq2NjYxcvXmxhYXHw4EGe9e5+/vlnGo2mqqqqrq5uYmIyZsyYixcvchf4559/Nm7caGFhwT2Q8Icffhj7v44cOSKoPWlpaa6urkZGRsePH29oaEAIXbt2bdiwYba2tu3/BTNmzJgyZYqbm9vcuXPnz58/Z86cGTNmTJ482cHBgeex79ix4+uvv541a9bcuXM9PDymTZs2ceLEv//+u8PnR+ZwOBxfX1+8TSKRjh8/Li8vL90mAQDAl6mH+mAqKyvnzZsXHx+/fPnygwcP4kSUWG5u7pIlS5ycnNavX3/w4EHh3wfR0dFr166trKzEi6aQyWS8PzMz09fX9+3bt5MnT5ZUm8+fP//9999raWndunWLu9qDBw8ePXp08+bNERER169fHzVqlKAadu7c+euvv8rJye3bt2/Dhg1Etw2Hw0lISFizZk1KSkpYWBjRGWNtbTUZuw4AACAASURBVD19+vS0tLTnz5/zrbC+vl5JSWnhwoUIoStXruCEfDY2Nubm5tzFzMzM+J5++PDhTZs2qamp/f3333PmzCH2379/393dfeLEiSdPnly+fDmx39bWlk6nP3v2LCMjg9jp7Ow8bNgwni4oKpWan59PTDDW1ta2s7MTtGSfTDt58iSxmLKvry/MQgIAAKnpaipIETAYDEtLS4TQjz/+yLdAS0sLzpg1Z84cIVnvg4KCEEIKCgoxMTF8C6xYsYJKpeLHtXr1aiFN0tfXRwipqKgIKnDo0CESiaSjo5OTk8O3QExMDIlEUldXT0xM5FuAyG9w8eLF9kcfPnzo5OSEEOKbKXfRokX43N27dwtqIU7piRDqZILcffv24fK3b99uf/TkyZMIIRKJlJCQwHOIyWTi/w5CyN3dXVD9zc3NeJF1Dw+PysrKzjSpPZZEsdls0ZohSFpaGrEO4eTJk0XIpAoAAEBSuj2CaWtrwzMPra2tW1tbBRXLzc3FP+t/+eUXvgXCwsLwN8fvv/8uqJLW1tbRo0eLH8HEx8fjrqALFy4IqWTFihUIIT09vaKiIp5DFy5cwM3w9PRsf2JDQwPxRWhnZ9e+ADFQVFIRTFJSEn5E8+bN41uAxWLhnhtra+v2R69fv46vZWFhISQs8PHxGTJkSFNTU4ftaS81NVWyqYkRQoqKigEBASI0hq+CgoKBAwfimm1tbWtqaiRVMwAAABF0+12ks2fPPnjwACG0evVqIaNfjY2N3d3dr169Ghwc7OnpybPCYFFR0dq1axFCZDJ548aNgipRUFBYtGjR27dvxWkwi8X67rvv2tra9PT05s+fL6Tkxo0bT506VVpaumXLFiJkQQjV19dv2LABb/NNnNHY2EjkNOC7qrTEl6j39fVta2tDCK1bt45vAXl5+enTp4eGhqanp8fFxfHcHJk5c+bAgQMLCwszMzPj4uImTZrEt5InT55s27ZNtFRnFApl+vTpDAZDhHMFUVFRsbW1lUhVmZmZM2bMKCwsRAi5uLjExMRIMN08AAAAUXRrfNTa2mpiYoIvlJGRIbwwMTr1m2++4TlEDM5Ys2aN8EqIQawi98GcOnUK17Bo0SLh1+JwOAYGBgghOTm5Dx8+EDv37t2Laxg8eLCgE3EyIyUlJb7dPMeOHcM1SKQP5s6dO7hkv379mEymoGI48ypC6Lfffmt/9LfffhP038ESExO1tLQaGxuFN0YW3b9/X1dXFyFEIpHWrVvX3Nws7RYBAADgdO9cpKdPn+LRpkpKSh3mjiGWBYuJicHTZLDm5uZLly7hbTx2pFudP38eb+BRHcLhNrPZbO5JQ5cvX8YbQjIDHDt2rKioqKysrAfm4sbExOANS0tLRUVFQcWIIcncGX8IK1aswF1o165d49tTcvz48WXLlqmqqkqgxb0Gm83etm3b1KlTKyoqzM3N4+Lijhw5oqysLO12AQAA6ObZ1Hfv3sUbmpqaHSbB6t+/P95oaWmJj48n9sfHxxNzdwcNGiT5VnKpr68nJhV3ZlgG0Wain6Oqqoq4jTVkyBAh5xoaGhKndyviySSGcfBFoVDwBt8IxtDQ0M3NDSHEZDKJMUmEysrKq1evrlq1SvzW9ippaWkhISEcDsfDwyM1NdXZ2VnaLQIAAPBf3RvBZGVl4Y3ODOzgnmKdnZ3Nd7u7J+jm5eWxWCy83aU2E43Mz88nVnnR1tbuhjZ2WVFREd64e/eugWAWFhbk/49vPatXr8YbJ06c4HA43IciIiLGjBnT95bFMzAwwGHfrVu3AgMDubsGAQAASFf3RjBlZWV4ozMd79xliBN5tpWUlCTXOj64r9WlNldVVeE86RUVFcRR7phMWthsNtGDtXTp0hLB6HQ6g8FgMBi3bt3iW9WUKVPwfKXs7OzHjx9zHzpx4gQe2dPHDBgwIDk5+euvv25tbQ0JCbGyshK0VA8AAIAe1r0RDDFfA0+EEa6xsZHY5r69wr3dmWVwxcE9waRLbVZVVcVDTLj7XYgJR1IkJyeno6ODt5ubm8WpikQiEfeJuBcFTkpKKi0tFT5vS3ZRKJR79+5t374dIVRQUODi4tL+JhoAAICe172zqYmBFzU1NR0W5u6i5x6xQSxShxCqrKyUXOv44L5ul9pMpHbiroG7P6YnOTk5HThwYOzYsfhPY2Nj/LyVl5eLWbOPj8+OHTuYTGZMTExpaamenh5C6MSJE97e3qJNoiY0NDSEhoZKfDa1u7v7mDFjxKxHTk5u586d6urqP/30E5PJ/O6778rKyvz9/SXSSAAAAKLp3ghm0qRJeGJwZWVlU1OT8IkqJSUleINEIrm4uBD7XVxcSCQSHngh2W+49vT09KytrdPT0xHX8BEhiDYTS6RQKBQbG5u0tDSE0Pv377utpcLQ6XTuZWamTp2akpKCEPr48aOYNQ8YMGDu3LkXL15sbW09e/asv78/HsOL6xdHampqd8QEJSUlxPR4MW3btq2kpOTQoUN4W1dXFy9pCAAAQCq6N4KZNm2ahoZGfX09m81OTU21s7MTUpj4FnRwcMDrrGB6enqOjo5JSUkIoeTk5FmzZgmphGeEqQgWLFiA1z7p8Fu5ra0NRyoIIe57KPPnz8f7ExMTO7xcaGjo5MmTcdaFLiGyKbV/yCwWizvx9cKFC3fv3o0Qys7OZjAYxJwjvvLz88+cOfPrr78KKrB69Wo8dfzEiRN+fn4RERF2dnbCZ111xoQJE3Jzc8XvJeKmrKxsYWEhwQoPHjxYXFx85coVhNDq1avNzc0hLxIAAEhNdy84ExgYiC+0bds24SXHjRuHSz569Ijn0P379/GhsWPHCq+EWHhN5BXtqqqq8MARVVXVqqoqIZXExsbiazk5OfHUQMzEvn//vpAaysrKlJSU0tLSePZ3ZkW7ZcuW4TKXL1/mOaSiosKTzmnu3Lm48N69e4W0h8Ph/Pjjj4IyDxCIeOv+/ftWVlZRUVHCy/cldDqdyAgxcOBA4a8QAAAA3afbI5iGhga87BuFQqmoqBBU7NGjR/hbYdmyZXwL4ITMfOMbQmVlJTFo5rvvvhPSKjwrW0lJie/RiIgIXMnOnTsF1cBms/HqIOrq6qmpqTxHT58+jWtwcHAQkqty27ZtfHMl/vXXX/j0Xbt2CTp3586duExgYCD3/pKSEkVFRZ61d3Nzc/EcaSqVWl1dLajO/Px8HR2dlJQUQQWwgwcP4ksPHjyYQqF8aQkOiWceIeTj4yPt5gAAwBeqJ3JT5+bm4sBi+vTpfFe1LygoMDY2xp0ZgvIC1tXV4Rw3xsbG5eXl7Qu0tra6uroS8254+kW4MZlMIkOToN/QAQEBCCEFBYW4uDi+BfDXmKKi4rVr1/gWIPI3+fv78y1w/fp1TU3NrKys9od27NiBz/Xz8xP0KP7991+8SCBPbsj9+/cvWLCgffn4+Hg1NTWEkJubG9+Yo6amxs7OTlBmTW6VlZXEkCYhLeyrGhoaiECZJ6EEAACAHtMTEQyHwykqKho/fjxCaPz48f/88w+xn81mX79+3dDQECHk7e0tPONMbW3t9OnT8U9/7ko4HE5WVpa9vb2Hh8eBAweI38cLFy4MDQ09d+4cLlNYWBgZGXn8+PGZM2cSZSZPnnz06NHIyMjPnz/zXO7o0aNKSkpKSkr79+9vaGjgfiw4T5Oenl5CQoKQBv/+++84I/TSpUvpdDqxv6Gh4cCBAxoaGrGxsdzl79y5ExERsXPnTuImlLa29q+//hoWFsbzeDFfX19cDC8xx+Fw/v33X0NDw6SkJL7tefv2LZ4zNWHChOTkZGI/m81++PChtbW1l5cXi8US8ogIXl5eCCESiZSZmdmZ8n1MaGgo8RLiGy8CAADobj0UwXA4nLa2tvDwcGtra4TQiBEjvvnmm9mzZxsbG8vJybm4uMTHx3eynkuXLg0bNoxEIk2ZMsXf39/Pz2/KlCkmJiZHjx7lcGV2JCgoKOATY2JiFBUV+/XrRyaTqVQqjUajUqlkMrlfv36Kiopnz55tf62cnBwvLy81NbX+/ftPmzZtyZIljo6OSkpKAwYM2L59e01NTYetTUtLc3NzU1RUVFBQGDFixOLFi2fMmKGlpeXq6vrvv//yFB41apSqqqq2tra+vj5385SUlLZv3873Kf31119xt5OLi4ubm1v//v0jIyOFtKehoSEwMBAPA8L/hYULF+rr65uYmERERHT4cAgvX75ECLm6unb+lL6krKwMx6a4H66srEzaLQIAgC/Of2cp96RPnz69ffu2pKRESUmJSqU6OjoKnx3DV0ZGRnJycklJiZaW1uDBgx0cHPDsm+Tk5BcvXujq6pLJZF1dXbwhZrrBpqampKSk3NzcmpqaAQMGDBkyZNy4cdyTfTpUVVWVmJhYUFDAYrEGDhw4btw4Go0mTpN4mnfv3r3c3FwVFRVXV1e8bK5wHA7n5cuXGRkZDAaDTCZbWVnZ2dl1mLiKx4ULF+zt7Ync41+aSZMmxcXF4e2DBw8SNw0BAAD0DClEMAD0AQEBAb///jvenjlzpqBUDAAAALpJ92YVAKCvGj16NLH97NkzKbYEAAC+TBDBACCKYcOGEdtVVVXV1dVSbAwAAHyBundNXgD6Kp7BW2VlZcQMMpnT0tJSUVFRXl7OZrNHjhwp7eYAAECnQB8MAKLgGcrd2toqrZaI7M8//zQ1Ne3Xr5+KigqVSh0xYsSmTZvErLO6urq4uFgizZOgtrY2Fosl7VYAIDOam5ulct2uDsyFCAaAL5S5ufnUqVPxAgESqXDPnj26urpUKhWvrC2ROsWXlZU1btw47mSxAID2mpqaIiIiXFxcyGSyvr6+mpraqFGj9uzZQ6fTxa+8vr6eQqEsWLAgMjKy/T13nDkxMDDQzMzsyZMnXahXqnO5AZBVPG/C9+/fS7tFoiOSYLi4uIhcSVFREXe/1OPHjyXYQtFUVVUdPnwY57EaNmyYtJsjZQwGw8fHp/3SnVhSUtLatWvZbHYPtwr0Eh8+fDAzM9PU1Ny5cyeDweBwOPX19SdPnqTRaLq6utevXxezfu4wSEFBwdzc3MHBwcPDY8aMGePGjSOSzc2ZM6dLL0IYBwPAlw6vly2m2tpaNpvN/aeQwhUVFS4uLq9evRJzrSYezc3NCQkJ1dXVWVlZycnJt2/fbmlpkWD9Mk1RUbG8vNza2nrz5s0//fSTuro63l9cXOzn5xcVFfXzzz9zOJyurgsF+oD4+Hh3d3c2m/306dPhw4fjnerq6itWrJg2bdqECRPc3d13797t7+8vkcuxWKzs7Ozs7Gye/d9+++2pU6e69goUM7AC4MvUl/pgcnNz8aMQpw+Gw+HMmjUL12NpaVlfXy+kZEpKCkJIeBkR4AdCIpGoVKq7u/vZs2f37duHmwR9MBwOh81mBwcHy8nJUanUyMjI5ubm3bt3a2hoaGtr37p1S9qtA9JRXFyM8/6GhobyLfDu3Ts5OTkSicSTBqdLhN+KGjFixN27d0WoFvpgAACSERMTc/PmzYaGBnd3d+InPl+FhYXd0QAjIyM8KUxRURHvOX78eHdcSEaRSKSff/557NixixcvXrJkyffff19fXz969OgrV658sYtrg//85z/l5eW6urrfffcd3wIjRoyYPXt2TEyMr6/vhw8fxBk2t3z58oqKio8fP5aWlpJIJD09vbFjx7q5uXl4eHRpmXsCRDAAAMmQl5efM2dOZ0o+ffq0OxogJycnQoqSL82UKVPevn07f/78169fr1y58vDhw8rKytJu1Bfn1q1bFRUVixcvJqJtqSgrKwsLC0MITZkyRUVFRVAxHMFkZWXdunVr7ty5Il9u6dKlzs7OIp/eHsxFAgD0tIsXL0q7CV80Go2WlJR07969EydOQPgiFbt27fL29h40aNChQ4caGxul1YyoqCi80ICdnZ2QYsQyURERET3RrE6DCAYA0KPi4+OJkTdAWpSVlV1dXaXdii/XjRs3Nm/eXFlZuXHjRmNj4507d1ZVVfV8My5duoQ3DA0NhRTT09PDG7GxsVKMt9qDCAYA0HPodPqyZcuk3QoApExXV3ffvn35+fmBgYEIoR07dtBotK1bt/bkgpCtra3Jycl4W/jt1wEDBuApQq2trXgYfi8B42AAAPzR6fSsrCx1dXVjY2MdHZ3OnFJTU8NgMMrLy62srPr3789ztLy83N3dvaCgoBsaC7qgoaHh4cOHOTk55eXlVCrV1NTUyclJ+OBrrL6+/v79+58/f66pqdHT07OxsXFychJtDKZUFBcXZ2dna2pq2tjY8DS7ra3tw4cPjY2NfF+63URbW/uXX37ZvHnzyZMn9+/fv2/fvkOHDnl5eW3dutXCwqK7r56WlkYsNyA8glFQUNDW1q6srEQIvX792sHBobvb1kky88oDAPSMioqK//znPwYGBm5ubiEhIV5eXgMGDHB0dDx79iz3ii/cJk+ebGBgoKioqKWlZWFhMWHChIyMDO4C169f9/HxMTU1ffXqFbHTyclp7P96/vx59z62L15paemKFSsGDBiwZMmSa9euVVdXP3/+3N/ff+DAgT/++KOQGxkMBmPVqlUUCsXf3z8vL09NTe3ly5fTpk2jUqlnzpzh9JolmAWJi4uzs7NzcHD4/fffZ86cSaPRIiMjiaPHjh0zNjbetGlTQEAAjUZbunRpQ0NDj7VNTU1t48aN2dnZYWFhZmZmJ0+etLS0/Oabb4gOkm7C/VtCW1tbeGEi75tEJhIymcw3b97cvn07MTFRrG4nkad3A/Al66vrwTx79gx/lON1ObF///3366+/RgiNHj2a76KuO3bs8PHxGTRoEPGEvHjxgrtAeHj4lv9PXl4el/H19d3yvzIyMiT70I4dO4avBevBcDic27dva2pqIoS8vb0rKyu5D2VmZs6cOXPkyJHc/3dCUlIS7oT79ddfWSwWsT87Oxv/0728vNra2rr9AYgqKirK0tLy2rVr+M/m5macZQKvgLJ582Z7e/uysjIOh9PY2LhmzRqE0NKlS6XSVDabffXq1TFjxuDX7dSpU+Pi4rrpWtzDcul0uvDCRJ/QypUrRbgWXg8mPj4+Ly9v+fLlWlpalpaWs2fPHj58uLy8vIODg2grEkEEA4Ao+mQEQ6VStbS0bt++3b5Ma2vr/PnzEUIUCuXdu3d862lpaTE2NuYbwXAjJm1KfEW79iCCIVy5ckVBQQEhtHr16vZHc3NzFy5cKC8vP2PGDJ5DSUlJeOlkPz+/9iemp6fjagMDA7ul3WI7ffr0yJEjy8vLuXfeuXMHIaSpqRkaGmpiYoLDFw6Hs2DBAvyCGTBggDQa+38ePnw4efJk3Jjx48dfv35d4jkfjhw5QnyC8Y1cuVlZWeGSCxcuFOFaOILZsmWLoaHhjh07amtriUOvX7/GyxH5+Pi0trZ2qVqIYAAQRZ+MYBBC+I4AX3V1dTQaDSFkYmJSUVHBt4ybmxtEML3Qx48fNTQ0EEJmZmZNTU3tC0yaNAk/USQSqbGxkdjPYDCoVCpCyNDQkO+JHA7Hy8sLIaSsrJyfn99dD0BUeXl5FAolOzubZz/3kvZhYWHEfiLNxYQJE4TX3NLSIvHWtvfq1SsPDw88itba2joiIqKr3/FCBAcHE08CT59ce8OGDSO6hUS4Fo5gyGTy27dv2x99//49/ljoangE42AAAP9FJpN9fHwEHdXQ0Ni8eTNCKDc3d9u2bXzLdGY0KOh5vr6+9fX1eIPvwmWlpaV4g8PhtLa2EvuDg4OLiooQQitWrBC04hnOJtHS0nLq1CmJt1xMmzZtWrdunZmZGc9+Im+Xrq6up6cnsX/16tUKCgo0Gi00NFRQnXQ63crKikwmv3z5sjvazG3s2LF///13enq6t7d3ZmbmsmXLBg0adOTIkaamJvEr505e1mE2IuLmb01NjQjX0tDQ0NHRuXbt2qhRo9ofHTp0qLe3N0Lo8uXLxK+OzoAIBgDwX/hnuhBEH3tYWNjnz5+7v0VAAt68eXPv3j28vXDhQr5l/P398eKw69evx2NlEEJVVVVEWoYZM2YIqt/Z2Rl//yUlJUmw2eL79OnT7du3169f3/5Qeno63pgyZQr3mn4HDhyorKzMycmxtbUVVG10dHRGRkZdXR1RSXeztLQMCwvLzs729fVlMBgbNmwwNjYODg7m6QnuKg7X+OsOI5i2tja8IWg4v3Dq6uplZWWOjo6CCkyfPh1vBAQEdH4YNUQwAIDOMjAwwCNdWCxWdHS0tJsDOuXy5ct4w8TExMDAgG+ZpUuXlpWVFRUVHT58mNh579494rc+cROhPQqFMnDgQIRQZmamxBotCYWFhatWrdLV1W1/6PXr13iDGGtC6Nevn/D54TNnznR1dQ0ICPj2228l1dTOMDIy+vPPP/Py8n755RcWi7V9+3Yajebn51dSUiJahcT0IvS/0QxfRAQj8lRzoheHr4kTJ+KnvbKyMjw8vJN1QgQDAOgCfX19vHH37l3ptgR00oMHD/DGkCFDhBTT0tLiWZg1Pj4eb2hrawu/P4hXEykqKpLI3Q1JmTRp0qFDh/geevbsGd4QIU2PmZnZvXv3goKCpJLSiEwmBwYG5ufn7927t1+/fnv37jU1Ne3SnRcCdyyCcwsIIX4EI5yWlhaxJk1sbGwnz4IV7QAAXUAsbZeTkyPdloBOIkZqd7jmBw88AgYhVFtbK6jzBmOxWGQyWU1NrcMvwt6grq7u7du3CCFDQ8MeWDiuO2hoaNja2g4aNKi4uLilpeXjx48iVMLdB8NkMoUXJv6zxE1GidPQ0MDjsYj4skMQwQAAuoD4BcZgMKTbEtAZbDabGC3R4TgnHsSYTXNzc9G+I3unp0+f4h4FyeZJ7hkcDicmJmbXrl34RpiLi8tPP/0kWoor7t6UDrMdEb1rIkQwTCYzISFBX1/fxsZGSDGin6+qqqqlpaUzOUfhLhIAoAuIzuRO5hkA0iUnJ0d85dTV1XXpXKJXv7m5WcLNkqrHjx/jDbyuXZcQr/+e19raGh4ePnTo0Llz575588bd3f358+dxcXEiZ+jkvmkofIYRm80mfrHgMU+d19LSMmHCBFdX1+HDhwcFBQkpyT1QppMvOYhgAABdUFFRgTeMjIwkWzOdTscLWwHJIr5yiP9dJxHrE5aXl0u4TVJFRDBd6oMJDw8fPHiwgYHBmDFjemAeNbfGxsbDhw8PGjSImFP9/v37mJiY8ePHi1OtjY0Nsf6N8MzY5eXlxF2k0aNHd+kqb9++JdIj7N+/X0hJImpRVVXt5GgbiGAAAF1ADKoQ+ZefIG1tbcTACyBBxHSb9+/fd+nEqVOn4o3GxkaJZMPpDSorK3F2ZT09Pb5Dm588eXL+/HmenZGRkWfOnElISPj06VNKSoqbm1vPJE6qrq4ODg42MTHx9fUtLy/fsGFDVlZWeHi4tbW1+JUrKCgQ4Uh+fr6Qkng9OnwK3wVdhODu+RM+mgpnjkQIWVpadrJyiGAAAJ1VWlqKl4EhkUjE2jBdRUxV5ZnAyWKxZCjLsQzB6SAQQnQ6vcMJzw8fPrx+/Tre/uqrrwYMGIC3O0y6yeFw1q1bR+Q67rXi4uLwiiZOTk58CwQHB/PMT87Ozg4ICLh69aqBgYGysjKHw2EwGKmpqd3aTjqd7u/vT6PRtm/fjudO5+bmHjp0iOgYk4i5c+fiDe5Fitsj4tepU6d2dRyMqakpQkhLS8vW1jYsLExQsaqqKmJZRXd3905WDp8XAID/6vBn5dWrV/GGp6fn0KFDRbsKmUzGGzwzb+l0uvCfaL3B1atXN27cSKywIhMmTpxI3C45e/as8MJ+fn5EymIlJaXt27fj7Q6X6Lh16xaReqk3YLFYfn5+FhYW3t7e3KsMX7t2DW+MGDGi/VlZWVkvXrxYtmwZ986QkJC1a9fi121iYiKOvPEXc3f4/PnzmjVrTExM9uzZo6GhsWfPnry8vJ07dxLDkiTI29sb30h68eKFkGJESnlBS+DcvHnT19e3fd8VQmjw4MGmpqYHDx5MTk62s7MTdAli/pGysjJen7dTREhwAADoq3mRYmNjBRVrbm7G41T09fULCwv5liGWfH3+/LmgeoibGvjLgBAVFeXs7Czqg+CPWBve2tpa/Nq4V83ft2+f+BX2mNTUVDU1NYSQtrZ2SUmJoGJ3796lUqnc+aqYTKa9vT1CiEQivX79WtCJra2tY8aMwameewnuIRevXr3CO2tra/HzgP43HRJhzpw5+/fv597DZrPJZHJpaSn+c/HixQghR0fH7mjzP//84+npiQe0Dho06Pjx483Nzd1xIW44F7eSkpKQ9NR4DpGFhQWTyWx/9Ny5c8RTHRwc3L5ARESEtbU133MJHh4euIYtW7Z0vvEQwQAgij4ZwcybN49KpfL9hmOz2fiHqaamppCsjRMnTuwwEiJW3+LJdezm5ibxr8Aff/wRX0tHR0dQYsLOwwmAMAqFIvwTubeJjo7GHSRfffUVd+5GwqdPn4yMjC5cuMCzn06nm5ubI4RMTU2Lioran8hms9euXTtx4kSJJ08Wx+zZs/F/Sl1dnUhEunHjRhcXF5ygNCQkhOeUP//8c9y4ce3/rcXFxXijsrISJ4c6ffq0ZFv75MmTmTNn4gaPHDny4sWLbW1tkr2EIHV1dXhRnLVr1/ItcOHCBYSQnJzc/fv3+RYgnmqE0IgRI/iWcXFxWbx4saBXyI0bN3BaA3t7+y6lzIQIBgBR9L0IZujQoSwW68CBA4MGDXrz5g13gcLCQvwhNXjw4PT0dJ7TmUzmhQsXwsLCuBPQWFtb79+/Pzw8vP0POyaTiccPKisrp6Wl4Z3R0dEGBgbV1dViPpZbt25FRUWdO3fu8OHDixcv5l41dcyYMUFBQWfPnr1w4cLFixeFdEUI8sMPP3D/05OTk8VsbQ+7e/cuXsRs3LhxKSkpxP62trabN29SKJQd9DyiNAAABs5JREFUO3bwPZHBYOCJxwYGBjExMdzfQxkZGbNmzbK1tS0rK+v2B9AVgYGBCKHRo0c/efIE7zl9+rSBgUFhYWF0dDSJRLKysiJ6m+rq6n766ScXF5fa2lohdeIVftXV1evq6iTVztjYWGJEjrOz8507dyRVc+elpKT069ePb79Ueno6TrNw6NAhQafjhK/YggUL+JbJzMw0NzefP39+QUEBz6EbN27glYocHR0ZDEaXWg4RDACi6HsRzMOHD/GfsbGxNjY2Li4uW7du9ff3nz17tpKSkomJyR9//MH351F1dbW8vLy6urqOjo6BgQGNRjM0NNTV1VVXV1dQUCCq5VZZWblkyRJFRUU1NTV3d3dnZ2d9fX0imhGHpaVl//79KRSKoaGhkZERjUYzNjY2Njam0WhGRkYDBw7U19fX0dFRVVW9e/duVyuvqKiYNWuWurr6xIkT7e3tb926JX6DexiDwSByN5qZmc2fP9/Dw8PIyGjo0KHCHw6bzY6MjMTZkYyNjd3d3ZcuXWptbd2/f/+AgADx+7ckrrGxcd68eRQKZc2aNQEBAS4uLqNGjfr8+TM+GhERoaura2Vl5efnt3LlSkNDQy8vL75dU9zwzRRvb2/xm9fW1nbx4kU8FodEIrm5uT179kz8akWWlZVlZ2dHIpG8vLxSUlIaGho+fvwYFBSkpqamq6srqPcFq66u9vDw0NDQmDRpkqD7yxwOp6amZsGCBWpqasuXLz9y5EhsbOzJkyenTZuGEFJVVQ0ICOhS7wtG4nSUzwkA0F5NTQ33mtzv378XeWRrL8Rms1NSUtLT08vKyvT09GxsbPgOexRTaWnpgwcP6HS6np6em5sb9/PZ+y1YsMDb25vo+ZctTCYzKSnp8+fPNTU1BgYGQ4cOHTlyZCfPzczMfPPmTUlJiZqamqmpqbOzM76x0jtlZGQ8e/asoaHB3t7e1taWe7JbTU3NkydPMjMzKRSKg4NDh2sRvXz5Eq+/kpCQQNwtFdm8efP+/vtvBQWFRYsWbdu2rTd8erBYrDt37ly4cCE5OZlOp+vo6AwaNOibb75ZuHChBDMJXL9+PTIy8t27d6Wlpdra2ubm5jNnzvT09BRtFD9EMACIom9HMKBDdnZ2hw8fHjdunLQbAnrIypUrT506ZW5unpmZSSKR2Gz2mDFjnj17JloAd+DAgdzc3M2bN0t2dvSXprfMfAMAAFnR2tqak5ODb6mALwGbzY6OjkYI+fj44DGnDx48UFVVFbn/iRhjDsQB68EAIAruIaJIqtlSQM978OCBjY0NMS8X9HnZ2dk4cxCxkOOePXv8/Pyk2igAEQwAIlFTU+P++UWsJgm+BCdOnOCefwH6PCqVild+09PTQwgFBwdTKBTuWcRAKiCCAUBE3ANf3r17J8WWgJ6UkJCQk5MzY8YMaTcE9Bw1NbVjx46pqKh4eno6ODg8f/48PDwc304CUgQjeQEQ0YYNG44cOYK3Z82adfPmTem2B/QABoNhZ2d3/PjxKVOmSLstoKeVlpa+e/fO0NAQT6sGUgcRDAAievz4MbFAvpaWFoPB6D1JYUB3YLPZEydOnDZtGpEtCAAgRRDBACCitrY2Y2PjoqIi/OelS5eIrECgr0pMTBR/LRAAgETAOBgARCQvL79161biz8OHD0uxMaBnQPgCQO8BfTAAiK6xsdHCwqK4uBj/GRsbO336dOk2CQAAvhDQBwOA6NTU1P766y/iz/Xr1zc1NUmxPQAA8OWACAYAsbi7uy9ZsgRvf/78edWqVdJtDwAAfCEgggFAXCdPnsQp3xBC58+fDw4Olm57AADgSwDjYACQgPLycgcHh0+fPuE/g4KCAgICpNskAADo26APBgAJIJPJT58+dXBwwH9u3759+fLlLS0t0m0VAAD0YRDBACAZZDL50aNHy5Ytw3+eOXNm7NixkG0AAAC6CdxFAkDCbty4sWHDhvz8fISQgoJCQkKCvb29tBsFAAB9DfTBACBhs2fPTk9P9/PzU1NTY7FYDAZD2i0CAIA+CPpgAOguDQ0NDAaDRqPJycFPBQAAkDCIYAAAAAAge+CnIQAAAABkD0QwAAAAAJA9EMEAAAAAQPZABAMAAAAA2QMRDAAAAABkD0QwAAAAAJA9EMEAAAAAQPZABAMAAAAA2QMRDAAAAABkD0QwAAAAAJA9EMEAAAAAQPZABAMAAAAA2QMRDAAAAABkD0QwAAAAAJA9EMEAAAAAQPZABAMAAAAA2QMRDAAAAABkD0QwAAAAAJA9EMEAAAAAQPZABAMAAAAA2QMRDAAAAABkD0QwAAAAAJA9EMEAAAAAQPb8P5gFN0M27XMTAAAAAElFTkSuQmCC;" parent="1" vertex="1">
                    <mxGeometry x="44.989999999999995" y="290" width="225.01" height="52.72" as="geometry"/>
                </mxCell>
                <mxCell id="33" style="edgeStyle=orthogonalEdgeStyle;rounded=0;orthogonalLoop=1;jettySize=auto;html=1;entryX=0.5;entryY=1;entryDx=0;entryDy=0;" parent="1" source="32" target="27" edge="1">
                    <mxGeometry relative="1" as="geometry"/>
                </mxCell>
                <mxCell id="32" value="&lt;font style=&quot;font-size: 13px&quot;&gt;$$\text{cut}_i \in \{9,10,...,30\}$$&lt;/font&gt;" style="text;html=1;strokeColor=none;fillColor=none;align=center;verticalAlign=middle;whiteSpace=wrap;rounded=0;" parent="1" vertex="1">
                    <mxGeometry x="130" y="467.72" width="40" height="20" as="geometry"/>
                </mxCell>
                <mxCell id="73" style="edgeStyle=orthogonalEdgeStyle;rounded=0;orthogonalLoop=1;jettySize=auto;html=1;exitX=0.5;exitY=0;exitDx=0;exitDy=0;entryX=0;entryY=0.5;entryDx=0;entryDy=0;" parent="1" source="34" target="17" edge="1">
                    <mxGeometry relative="1" as="geometry"/>
                </mxCell>
                <mxCell id="74" style="edgeStyle=orthogonalEdgeStyle;rounded=0;orthogonalLoop=1;jettySize=auto;html=1;exitX=0;exitY=0.5;exitDx=0;exitDy=0;" parent="1" source="34" edge="1">
                    <mxGeometry relative="1" as="geometry">
                        <mxPoint x="-120" y="240.0689655172414" as="targetPoint"/>
                    </mxGeometry>
                </mxCell>
                <mxCell id="34" value="&lt;font style=&quot;font-size: 20px&quot;&gt;NIST tests&lt;/font&gt;" style="rounded=1;whiteSpace=wrap;html=1;strokeWidth=2;" parent="1" vertex="1">
                    <mxGeometry x="-80.00000000000006" y="210" width="120" height="60" as="geometry"/>
                </mxCell>
                <mxCell id="53" style="edgeStyle=orthogonalEdgeStyle;rounded=0;orthogonalLoop=1;jettySize=auto;html=1;exitX=0.5;exitY=1;exitDx=0;exitDy=0;" parent="1" source="38" target="52" edge="1">
                    <mxGeometry relative="1" as="geometry"/>
                </mxCell>
                <mxCell id="38" value="&lt;font style=&quot;font-size: 13px&quot;&gt;$$p-\text{values}$$&lt;/font&gt;" style="text;html=1;strokeColor=none;fillColor=none;align=center;verticalAlign=middle;whiteSpace=wrap;rounded=0;" parent="1" vertex="1">
                    <mxGeometry x="-180" y="230.00000000000006" width="40" height="20" as="geometry"/>
                </mxCell>
                <mxCell id="55" style="edgeStyle=orthogonalEdgeStyle;rounded=0;orthogonalLoop=1;jettySize=auto;html=1;exitX=0.5;exitY=1;exitDx=0;exitDy=0;" parent="1" source="44" edge="1">
                    <mxGeometry relative="1" as="geometry">
                        <mxPoint x="450.3103448275865" y="477.72" as="targetPoint"/>
                    </mxGeometry>
                </mxCell>
                <mxCell id="44" value="&lt;font style=&quot;font-size: 13px&quot;&gt;$$\chi^2, \text{KS}$$&lt;/font&gt;" style="text;html=1;strokeColor=none;fillColor=none;align=center;verticalAlign=middle;whiteSpace=wrap;rounded=0;" parent="1" vertex="1">
                    <mxGeometry x="430" y="422.72" width="40" height="20" as="geometry"/>
                </mxCell>
                <mxCell id="50" value="&lt;font style=&quot;font-size: 13px&quot;&gt;ponovi za naslednji bit&lt;/font&gt;" style="text;html=1;strokeColor=none;fillColor=none;align=center;verticalAlign=middle;whiteSpace=wrap;rounded=0;rotation=-90;" parent="1" vertex="1">
                    <mxGeometry x="-120.00000000000011" y="130" width="160" height="20" as="geometry"/>
                </mxCell>
                <mxCell id="52" value="&lt;font style=&quot;font-size: 13px&quot;&gt;$$\text{sprejmi/ovrzi } H_0$$&lt;/font&gt;" style="text;html=1;strokeColor=none;fillColor=none;align=center;verticalAlign=middle;whiteSpace=wrap;rounded=0;" parent="1" vertex="1">
                    <mxGeometry x="-179.9996551724135" y="300.00000000000006" width="40" height="20" as="geometry"/>
                </mxCell>
                <mxCell id="56" value="&lt;font style=&quot;font-size: 13px&quot;&gt;$$\text{če } \chi^2 \gg \chi^2_* \text{ ali } d \gg d_*$$&amp;nbsp; pojdi takoj na naslednji bit v UTF-8&lt;/font&gt;" style="text;html=1;strokeColor=none;fillColor=none;align=center;verticalAlign=middle;whiteSpace=wrap;rounded=0;" parent="1" vertex="1">
                    <mxGeometry x="350" y="462.72" width="200" height="70" as="geometry"/>
                </mxCell>
                <mxCell id="60" style="edgeStyle=orthogonalEdgeStyle;rounded=0;orthogonalLoop=1;jettySize=auto;html=1;exitX=0.5;exitY=1;exitDx=0;exitDy=0;entryX=0.5;entryY=0;entryDx=0;entryDy=0;" parent="1" source="58" target="44" edge="1">
                    <mxGeometry relative="1" as="geometry"/>
                </mxCell>
                <mxCell id="66" style="edgeStyle=orthogonalEdgeStyle;rounded=0;orthogonalLoop=1;jettySize=auto;html=1;exitX=0;exitY=0.5;exitDx=0;exitDy=0;entryX=1;entryY=0.25;entryDx=0;entryDy=0;" parent="1" source="58" target="27" edge="1">
                    <mxGeometry relative="1" as="geometry"/>
                </mxCell>
                <mxCell id="67" style="edgeStyle=orthogonalEdgeStyle;rounded=0;orthogonalLoop=1;jettySize=auto;html=1;exitX=0;exitY=0.5;exitDx=0;exitDy=0;entryX=1;entryY=0.5;entryDx=0;entryDy=0;" parent="1" source="58" target="28" edge="1">
                    <mxGeometry relative="1" as="geometry"/>
                </mxCell>
                <mxCell id="58" value="&lt;font style=&quot;font-size: 15px&quot;&gt;$$\log_{10} (\text{lognormal})\text{ % 1} $$&lt;/font&gt;" style="rounded=1;whiteSpace=wrap;html=1;strokeWidth=2;" parent="1" vertex="1">
                    <mxGeometry x="360" y="329.08" width="180" height="47.28" as="geometry"/>
                </mxCell>
                <mxCell id="77" style="edgeStyle=orthogonalEdgeStyle;rounded=0;orthogonalLoop=1;jettySize=auto;html=1;entryX=0;entryY=0.5;entryDx=0;entryDy=0;" parent="1" source="76" target="7" edge="1">
                    <mxGeometry relative="1" as="geometry"/>
                </mxCell>
                <mxCell id="76" value="&lt;font style=&quot;font-size: 13px&quot;&gt;$$m$$&lt;/font&gt;" style="text;html=1;strokeColor=none;fillColor=none;align=center;verticalAlign=middle;whiteSpace=wrap;rounded=0;" parent="1" vertex="1">
                    <mxGeometry x="489.65999999999997" y="270" width="40" height="20" as="geometry"/>
                </mxCell>
                <mxCell id="78" value="&lt;font style=&quot;font-size: 13px&quot;&gt;ali&lt;/font&gt;" style="text;html=1;strokeColor=none;fillColor=none;align=center;verticalAlign=middle;whiteSpace=wrap;rounded=0;" parent="1" vertex="1">
                    <mxGeometry x="270" y="342.72" width="40" height="20" as="geometry"/>
                </mxCell>
                <mxCell id="82" value="&lt;font style=&quot;font-size: 13px&quot;&gt;zavrzi najbolj pogoste besede&lt;/font&gt;" style="text;html=1;strokeColor=none;fillColor=none;align=center;verticalAlign=middle;whiteSpace=wrap;rounded=0;" vertex="1" parent="1">
                    <mxGeometry x="67.5" y="240" width="80" height="20" as="geometry"/>
                </mxCell>
            </root>
        </mxGraphModel>
    </diagram>
</mxfile>